<?xml version="1.0" encoding="UTF-8"?>
<svg version="1.1" xmlns="http://www.w3.org/2000/svg" width="2164" height="664">
<path d="M0 0 C0.88988113 -0.00846954 1.77976227 -0.01693909 2.6966095 -0.02566528 C5.63781023 -0.04906167 8.57848865 -0.05005682 11.51977539 -0.04882812 C13.56474518 -0.055928 15.60971297 -0.06362674 17.65467834 -0.07189941 C21.94106585 -0.08535022 26.22726916 -0.08691022 30.51367188 -0.08105469 C36.00633008 -0.07515746 41.49810473 -0.10574865 46.990592 -0.14617157 C51.2139614 -0.17202193 55.43711728 -0.1749284 59.66055489 -0.17127991 C61.68556502 -0.17297359 63.71058476 -0.18263987 65.7355175 -0.20042419 C68.56776939 -0.22256166 71.39822298 -0.21293876 74.23046875 -0.1953125 C75.48447983 -0.21520737 75.48447983 -0.21520737 76.76382446 -0.23550415 C81.00885724 -0.1741238 82.68074892 0.02862352 86.12985229 2.7322998 C87.76821001 4.88016123 88.99133998 6.54106326 89.93066406 9.03710938 C90.3246489 10.05294853 90.3246489 10.05294853 90.72659302 11.08930969 C90.99349945 11.81716171 91.26040588 12.54501373 91.53540039 13.29492188 C91.83356659 14.07316818 92.13173279 14.85141449 92.43893433 15.65324402 C93.08529464 17.34437393 93.72563919 19.03781272 94.36062622 20.73324585 C95.75527787 24.45489562 97.18073325 28.16452813 98.60404968 31.87528992 C99.35316808 33.82908347 100.100796 35.7834491 100.84700012 37.73835754 C104.20352266 46.52414653 107.67702544 55.26004302 111.18756104 63.98522949 C113.05910998 68.63751706 114.92421215 73.29238747 116.78930664 77.94726562 C117.19835236 78.96801178 117.60739807 79.98875793 118.02883911 81.04043579 C124.04696163 96.06901998 130.01864986 111.11613138 135.99571228 126.16107941 C136.99183632 128.6684234 137.98803557 131.17573751 138.98425293 133.68304443 C143.7170882 145.59496264 148.44870869 157.5073632 153.17993164 169.41992188 C153.51686035 170.26825844 153.85378906 171.116595 154.20092773 171.99063873 C155.55580808 175.40202955 156.91068663 178.81342109 158.26555347 182.22481728 C160.89935268 188.85639804 163.53331273 195.48791492 166.16733837 202.11940575 C168.00838989 206.75457577 169.84910607 211.38987877 171.68955135 216.02528954 C178.49556429 233.16653784 185.31877963 250.30064961 192.17993164 267.41992188 C193.45298532 265.83882585 194.72459538 264.25656741 195.99560547 262.67382812 C196.70388992 261.79283447 197.41217438 260.91184082 198.141922 260.00415039 C200.85354548 256.56576885 203.37599217 253.01925583 205.86743164 249.41992188 C206.90303501 247.93885494 207.9395237 246.45840673 208.97680664 244.97851562 C209.50338867 244.22683105 210.0299707 243.47514648 210.57250977 242.70068359 C213.22354812 238.93914041 215.91887081 235.20995375 218.61743164 231.48242188 C219.157146 230.73669922 219.69686035 229.99097656 220.25292969 229.22265625 C221.34797736 227.71026922 222.44327383 226.19806231 223.53881836 224.68603516 C226.25641341 220.93347382 228.96784751 217.17646691 231.67993164 213.41992188 C232.75022644 211.93813826 233.820539 210.45636747 234.89086914 208.97460938 C237.18874627 205.7930399 239.48542666 202.61061006 241.78149414 199.42773438 C242.37124023 198.61046875 242.96098633 197.79320312 243.56860352 196.95117188 C244.69781142 195.38628533 245.82673325 193.82119231 246.95532227 192.25585938 C247.46514648 191.54945313 247.9749707 190.84304688 248.50024414 190.11523438 C249.16950928 189.18735107 249.16950928 189.18735107 249.85229492 188.24072266 C251.17993164 186.41992188 251.17993164 186.41992188 252.89916992 184.44360352 C254.36985566 182.54838624 254.36985566 182.54838624 254.08911133 180.50317383 C251.27750914 172.27597894 247.91999574 164.27336251 244.54763794 156.26303101 C242.61617256 151.67397474 240.70187099 147.07775548 238.78540039 142.48242188 C238.3950914 141.54766525 238.00478241 140.61290863 237.60264587 139.64982605 C233.92237993 130.82651803 230.32123128 121.97227386 226.74243164 113.10742188 C225.51243226 110.06296118 224.28193641 107.01870159 223.05102539 103.97460938 C222.58554291 102.82338089 222.58554291 102.82338089 222.11065674 101.64889526 C218.58070801 92.92671041 215.01160651 84.22060424 211.44372559 75.5138855 C210.3119888 72.74965874 209.18256714 69.98449803 208.05395508 67.21899414 C204.5473269 58.62906833 201.02984812 50.04442258 197.46166992 41.47984314 C195.84842536 37.601749 194.24672638 33.71894721 192.64691162 29.83529663 C191.88324377 27.98951365 191.11431914 26.14589598 190.33990479 24.30459595 C189.26912922 21.75726032 188.21677616 19.20302711 187.16821289 16.64648438 C186.84837936 15.89853104 186.52854584 15.1505777 186.19902039 14.37995911 C184.4511496 10.0563802 183.63408368 7.03631341 185.17993164 2.41992188 C189.05822275 -0.16560553 192.29574028 0.12449506 196.79467773 0.12939453 C198.11465004 0.1193187 198.11465004 0.1193187 199.46128845 0.10903931 C202.37537252 0.09001446 205.28922681 0.08613281 208.20336914 0.08398438 C210.22734676 0.07755942 212.25132343 0.07083129 214.27529907 0.06381226 C218.52055006 0.05182816 222.76571961 0.04813258 227.01098633 0.04931641 C232.45084999 0.04951963 237.89019139 0.02221934 243.32993126 -0.01222801 C247.51124469 -0.03446607 251.69243185 -0.03852208 255.87379837 -0.03746414 C257.87926661 -0.03982484 259.88473808 -0.04867465 261.89014816 -0.06412888 C264.69593612 -0.08372557 267.50059026 -0.07797564 270.30639648 -0.06591797 C271.13462418 -0.07715698 271.96285187 -0.088396 272.81617737 -0.09997559 C276.63979596 -0.05822192 278.72159214 0.15065691 282.08039856 2.12388611 C284.32785804 4.58169322 285.43927664 6.54791495 286.64599609 9.64233398 C287.27201973 11.21380943 287.27201973 11.21380943 287.91069031 12.81703186 C288.34629776 13.953134 288.78190521 15.08923615 289.23071289 16.25976562 C289.95112262 18.08362919 290.67154611 19.90748741 291.39261723 21.73108959 C292.15050294 23.65463364 292.90155521 25.58073187 293.65118408 27.50750732 C295.152485 31.36022102 296.68415113 35.20030067 298.22436523 39.03759766 C300.52001769 44.76002023 302.80424447 50.48682748 305.07862663 56.2177372 C306.63355467 60.13575823 308.19207316 64.05232255 309.75338268 67.96780491 C311.01703308 71.13946494 312.27590724 74.31301495 313.53540039 77.48632812 C314.00398972 78.65998428 314.47257904 79.83364044 314.95536804 81.04286194 C315.38034073 82.11676682 315.80531342 83.19067169 316.24316406 84.29711914 C316.61857834 85.24160416 316.99399261 86.18608917 317.38078308 87.15919495 C318.17993164 89.41992188 318.17993164 89.41992188 318.17993164 91.41992188 C321.83754147 87.9361773 324.77593564 84.39448463 327.67993164 80.23242188 C328.55823235 78.98329796 329.43717054 77.73462211 330.31665039 76.48632812 C330.77990723 75.82648926 331.24316406 75.16665039 331.72045898 74.48681641 C334.28152112 70.85985889 336.8887826 67.26636566 339.49243164 63.66992188 C340.59924725 62.13870424 341.70601762 60.60745391 342.81274414 59.07617188 C344.49722249 56.74667828 346.18183893 54.41728458 347.86645508 52.08789062 C353.71748002 43.9964093 359.56079798 35.90012557 365.35668945 27.76904297 C368.92645364 22.76528334 372.5195281 17.77847751 376.11743164 12.79492188 C376.67366211 12.0240625 377.22989258 11.25320312 377.80297852 10.45898438 C378.32827148 9.73195312 378.85356445 9.00492188 379.39477539 8.25585938 C379.86004639 7.61181152 380.32531738 6.96776367 380.8046875 6.30419922 C381.25851807 5.6823877 381.71234863 5.06057617 382.17993164 4.41992188 C382.52150299 3.7317337 382.86307434 3.04354553 383.21499634 2.33450317 C386.3186388 -0.68960444 389.89391512 -0.13659739 393.99414062 -0.09765625 C394.8952356 -0.10466553 395.79633057 -0.1116748 396.72473145 -0.11889648 C399.70880794 -0.13652757 402.69193895 -0.12483459 405.67602539 -0.11132812 C407.74724001 -0.1140218 409.81845341 -0.11790318 411.8896637 -0.1229248 C416.23336816 -0.12882699 420.57674387 -0.12023449 424.92041016 -0.1015625 C430.49046 -0.07878693 436.05973835 -0.09188291 441.62975979 -0.11585236 C445.9080029 -0.13030292 450.18606299 -0.12570746 454.4643116 -0.11534119 C456.51803745 -0.11267112 458.57177987 -0.11595346 460.62548637 -0.1252594 C463.49621488 -0.13541105 466.36569283 -0.1199425 469.23632812 -0.09765625 C470.08685257 -0.10575317 470.93737701 -0.1138501 471.81367493 -0.12219238 C477.58225098 -0.03916676 477.58225098 -0.03916676 480.67001343 2.33259583 C482.11588661 4.33138538 483.19659958 6.13330176 484.16040039 8.40039062 C484.51142822 9.21467529 484.86245605 10.02895996 485.22412109 10.86791992 C485.60141357 11.77195557 485.97870605 12.67599121 486.36743164 13.60742188 C486.77888428 14.57268799 487.19033691 15.5379541 487.61425781 16.5324707 C489.15081949 20.15555885 490.66719437 23.78684685 492.17993164 27.41992188 C492.50658813 28.20334961 492.83324463 28.98677734 493.1697998 29.79394531 C497.58262 40.37858132 501.98465958 50.96778881 506.34677124 61.57344055 C507.80702451 65.12052725 509.27525624 68.66179912 510.8046875 72.1796875 C511.26367432 73.24251953 511.72266113 74.30535156 512.19555664 75.40039062 C512.58646484 76.28750732 512.97737305 77.17462402 513.38012695 78.08862305 C514.60701121 81.66478843 514.3437682 83.8508231 513.17993164 87.41992188 C510.56902704 90.03082648 508.74485121 89.66035339 505.18943787 89.67987061 C503.93091759 89.67144135 503.93091759 89.67144135 502.64697266 89.6628418 C501.32240051 89.66568932 501.32240051 89.66568932 499.97106934 89.66859436 C497.04190286 89.6723095 494.11298247 89.6615866 491.18383789 89.65039062 C489.15364104 89.64919902 487.12344364 89.64874562 485.09324646 89.64900208 C480.83361369 89.64743588 476.5740648 89.63913649 472.31445312 89.62573242 C466.84877286 89.60875321 461.38318497 89.60491772 455.91748142 89.6056776 C451.72339493 89.6054059 447.52932871 89.59992436 443.33524895 89.59267616 C441.31977428 89.58948918 439.30429732 89.58752202 437.28882027 89.58678246 C434.47326863 89.58461862 431.65781566 89.57587301 428.84228516 89.56518555 C428.00529587 89.56563873 427.16830658 89.56609192 426.30595398 89.56655884 C423.00963562 89.54822744 420.32910604 89.46964668 417.17993164 88.41992188 C416.94016602 89.12632812 416.70040039 89.83273438 416.45336914 90.56054688 C414.97065329 93.88983523 413.08308203 96.32407706 410.80493164 99.16992188 C406.83259254 104.21058773 403.0465282 109.34905903 399.36743164 114.60742188 C395.2010643 120.55525191 391.00028835 126.47466324 386.74243164 132.35742188 C386.20255615 133.10338623 385.66268066 133.84935059 385.10644531 134.61791992 C384.0115512 136.13005615 382.91641742 137.64201887 381.82104492 139.15380859 C380.18766015 141.40925005 378.55639427 143.66620581 376.92602539 145.92382812 C376.12080444 147.03830322 376.12080444 147.03830322 375.29931641 148.17529297 C374.22632985 149.66255943 373.1551788 151.15115197 372.0859375 152.64111328 C369.24847627 156.58907352 366.37319556 160.50115705 363.43774414 164.37695312 C362.82995117 165.18970703 362.2221582 166.00246094 361.59594727 166.83984375 C360.42719079 168.40115966 359.24666287 169.95375243 358.05297852 171.49609375 C357.26890625 172.55086914 357.26890625 172.55086914 356.46899414 173.62695312 C356.00187012 174.24030518 355.53474609 174.85365723 355.0534668 175.4855957 C353.6168368 178.6668197 354.86436376 181.50383998 355.9647522 184.69822693 C356.27762177 185.48222366 356.59049133 186.2662204 356.9128418 187.07397461 C357.27438354 187.98605682 357.63592529 188.89813904 358.00842285 189.83786011 C358.40791138 190.83302643 358.8073999 191.82819275 359.21899414 192.85351562 C359.64378052 193.92167511 360.06856689 194.98983459 360.50622559 196.09036255 C361.68629075 199.05553076 362.87012471 202.01916219 364.05545807 204.98222733 C365.3239675 208.15605768 366.58743579 211.33189333 367.85131836 214.50756836 C369.78180422 219.35686035 371.71390212 224.20550508 373.64782906 229.05342579 C379.53585295 243.81341584 385.40311448 258.58165782 391.27135277 273.34952259 C393.88907494 279.93694648 396.50851689 286.52368513 399.12925911 293.1099081 C400.67628803 296.9986058 402.22132204 300.88807301 403.76187134 304.77934265 C404.36372079 306.29904877 404.96563901 307.81872765 405.56762695 309.33837891 C405.86302809 310.08409684 406.15842922 310.82981478 406.46278191 311.59813023 C408.3126127 316.25918342 410.18548115 320.91032455 412.07445717 325.55564594 C413.31926237 328.62080985 414.55440516 331.68981698 415.78823471 334.75941277 C416.37143191 336.20298346 416.959203 337.64471585 417.55182266 339.08444405 C418.36521522 341.06146431 419.16262644 343.04424492 419.95678711 345.02905273 C420.41197723 346.147108 420.86716736 347.26516327 421.33615112 348.417099 C422.25144842 351.67443382 422.40129296 353.2762446 421.17993164 356.41992188 C418.74553159 359.23480132 417.19894766 359.41793599 413.46766663 359.80760193 C411.94879241 359.82844151 410.42963653 359.83271963 408.91064453 359.82397461 C407.66360497 359.83426949 407.66360497 359.83426949 406.39137268 359.84477234 C403.64493704 359.86306419 400.89907135 359.85919943 398.15258789 359.85351562 C396.24213983 359.85807637 394.33169341 359.86338162 392.42124939 359.86940002 C388.41732112 359.87833588 384.41359225 359.8759027 380.40966797 359.8659668 C375.28030656 359.85447807 370.15163366 359.87468472 365.02236271 359.90388393 C361.07693616 359.92223632 357.13167488 359.92195537 353.18621635 359.91624641 C351.29519116 359.91609307 349.40415485 359.92214796 347.51317024 359.93453789 C344.86787954 359.94942754 342.22386426 359.93878612 339.57861328 359.92163086 C338.79871033 359.93129883 338.01880737 359.9409668 337.215271 359.95092773 C333.52135765 359.90080223 331.38828846 359.55295183 328.24523926 357.54620361 C325.89363663 355.12517457 324.81635642 353.09532798 323.55102539 349.97070312 C322.84901001 348.26829468 322.84901001 348.26829468 322.1328125 346.53149414 C321.62752585 345.26520043 321.12240459 343.99884072 320.61743164 342.73242188 C320.07392226 341.40106714 319.52903623 340.07027374 318.98291016 338.73999023 C317.748402 335.72458 316.52351146 332.70547569 315.30493164 329.68359375 C311.99832898 321.48476149 308.65659365 313.30020368 305.31884766 305.11401367 C303.53457287 300.73772488 301.75697767 296.35881183 299.984375 291.9777832 C299.1524723 289.92852903 298.32052441 287.8792932 297.48852539 285.83007812 C296.92512451 284.43169708 296.92512451 284.43169708 296.3503418 283.00506592 C294.18203985 277.67577335 291.82145418 272.53193312 289.17993164 267.41992188 C288.63792114 268.17039795 288.63792114 268.17039795 288.08496094 268.93603516 C274.36661784 287.93066406 260.64827474 306.92529297 246.92993164 325.91992188 C246.39287598 326.66371094 245.85582031 327.4075 245.30249023 328.17382812 C244.22796143 329.661289 243.15277486 331.14827495 242.0769043 332.63476562 C239.22805538 336.57280397 236.39385533 340.52044668 233.57836914 344.48242188 C232.98862305 345.30871094 232.39887695 346.135 231.79125977 346.98632812 C230.65814196 348.57447749 229.52904165 350.16550319 228.40454102 351.75976562 C227.8947168 352.47261719 227.38489258 353.18546875 226.85961914 353.91992188 C226.41344238 354.54898437 225.96726562 355.17804688 225.50756836 355.82617188 C224.17993164 357.41992188 224.17993164 357.41992188 221.17993164 359.41992188 C218.39799349 359.62487134 215.71533768 359.71362256 212.93237305 359.71044922 C212.09140579 359.71716644 211.25043854 359.72388367 210.38398743 359.73080444 C207.59976314 359.74982551 204.81577939 359.75371075 202.03149414 359.75585938 C200.09719747 359.76228462 198.16290179 359.76901278 196.22860718 359.77603149 C192.17166897 359.78801466 188.11481599 359.79171127 184.05786133 359.79052734 C178.86012425 359.79032414 173.66293383 359.81762352 168.46532631 359.85207176 C164.46930432 359.87431351 160.47341444 359.87836572 156.47733688 359.87730789 C154.56118257 359.87966807 152.64502484 359.88851497 150.72893143 359.90397263 C148.04765856 359.92357687 145.36757141 359.91781664 142.6862793 359.90576172 C141.89545456 359.91700073 141.10462982 359.92823975 140.2898407 359.93981934 C136.64548572 359.89819983 134.41270558 359.56227665 131.27789307 357.64515686 C129.28220131 355.52839577 128.18464032 354.0023956 127.10620117 351.33032227 C126.7740007 350.52761398 126.44180023 349.7249057 126.09953308 348.89787292 C125.58632256 347.595877 125.58632256 347.595877 125.06274414 346.26757812 C124.68906204 345.35329544 124.31537994 344.43901276 123.93037415 343.49702454 C122.70823286 340.4974985 121.50661229 337.49019648 120.30493164 334.48242188 C119.45345753 332.38179311 118.60065977 330.28170043 117.74658203 328.18212891 C115.6043814 322.9074558 113.47804342 317.62655411 111.35614014 312.34368896 C109.65761032 308.12155864 107.94522695 303.90511251 106.23071289 299.68945312 C104.11435407 294.48294838 102.00183594 289.27493382 99.89573669 284.06427002 C95.41630542 272.98302745 90.89587536 261.91871236 86.36743164 250.85742188 C85.99077362 249.93733337 85.6141156 249.01724487 85.2260437 248.0692749 C83.31046874 243.39027854 81.39446999 238.71145587 79.47827148 234.03271484 C76.08372926 225.74375822 72.69294385 217.45326483 69.3019104 209.16287231 C67.42807474 204.5818245 65.55399049 200.00087839 63.67993164 195.41992188 C62.92993045 193.58658903 62.17993045 191.75325569 61.42993164 189.91992188 C61.05868164 189.01242187 60.68743164 188.10492188 60.30493164 187.16992188 C56.92993164 178.91992186 56.92993164 178.91992186 55.8049469 176.16995239 C55.05490237 174.33651474 54.30485151 172.50307968 53.55479431 170.66964722 C51.68042358 166.08793118 49.80616279 161.50617023 47.93212891 156.92431641 C44.5498018 148.65512008 41.16669574 140.3862471 37.77944946 132.11906433 C36.26742106 128.42858205 34.7558739 124.73790282 33.24450684 121.04714966 C32.49633589 119.22017584 31.7480459 117.39325077 30.99963379 115.56637573 C26.8001359 105.31332673 22.62110243 95.05246448 18.48071289 84.77539062 C18.09644638 83.82239075 17.71217987 82.86939087 17.31626892 81.88751221 C15.48522743 77.34581196 13.65742093 72.80286628 11.8359375 68.25732422 C8.63619787 60.29738177 5.32897431 52.44064224 1.67602539 44.67504883 C-0.98585708 38.88345631 -3.41385182 32.99572532 -5.8269043 27.09692383 C-6.41163655 25.67274889 -7.00125782 24.25057261 -7.59545898 22.83032227 C-8.46973096 20.7405932 -9.32999753 18.64558463 -10.18725586 16.54882812 C-10.45279266 15.92061661 -10.71832947 15.29240509 -10.99191284 14.64515686 C-12.54870672 10.77907426 -13.44849472 7.57649223 -12.82006836 3.41992188 C-9.30780335 -0.49836348 -4.88846767 -0.01709501 0 0 Z " fill="#FFFEFE" transform="translate(1649.820068359375,158.580078125)"/>
<path d="M0 0 C0.90109497 -0.00686325 1.80218994 -0.0137265 2.73059082 -0.02079773 C5.71451496 -0.03912551 8.69791632 -0.03521964 11.68188477 -0.02954102 C13.75309928 -0.03410004 15.82431229 -0.03940477 17.89552307 -0.04542542 C22.23916769 -0.05436834 26.58262856 -0.05192004 30.92626953 -0.04199219 C36.49629183 -0.03050278 42.06568017 -0.05070779 47.63561916 -0.07990932 C51.91384418 -0.09824434 56.19191654 -0.09798421 60.47017097 -0.0922718 C62.52390494 -0.09211825 64.57764904 -0.09819067 66.63134575 -0.11056328 C69.50203227 -0.12541989 72.37153825 -0.11483532 75.2421875 -0.09765625 C76.09271194 -0.10732422 76.94323639 -0.11699219 77.8195343 -0.12695312 C83.56807687 -0.05481655 83.56807687 -0.05481655 86.62898254 2.21897888 C88.83136901 5.31016008 90.4040181 8.61229676 91.95141602 12.06030273 C92.30158279 12.82194733 92.65174957 13.58359192 93.01252747 14.36831665 C94.16251429 16.87626748 95.29929154 19.38996468 96.43579102 21.90405273 C97.24176248 23.66978339 98.0483303 25.43524194 98.85546875 27.20043945 C104.73183081 40.08001127 110.48618586 53.01385988 116.20751953 65.96289062 C121.00046199 76.80050763 125.90950078 87.58120828 130.87329102 98.34155273 C137.19512435 112.04866398 143.42654737 125.79135213 149.58009338 139.57507324 C152.93022608 147.07650925 156.3008791 154.56871436 159.67214966 162.06066895 C160.80741338 164.58404519 161.94182208 167.1078046 163.07617188 169.6315918 C167.19136246 178.7824221 171.32863313 187.92278054 175.49047852 197.05249023 C176.79808022 199.92563751 178.10534908 202.79893601 179.41253662 205.67227173 C180.25451803 207.52008209 181.09827985 209.36708232 181.94390869 211.21322632 C183.12262009 213.78660229 184.29537165 216.36262081 185.46704102 218.93920898 C185.81515839 219.69475067 186.16327576 220.45029236 186.52194214 221.22872925 C188.48551381 225.56399805 189.99480966 229.79430333 191.18579102 234.40405273 C192.83579102 234.40405273 194.48579102 234.40405273 196.18579102 234.40405273 C200.73550353 224.85995769 205.01279031 215.24211395 209.03601074 205.46487427 C210.65099933 201.54160885 212.27851869 197.6235362 213.90454102 193.70483398 C214.24906311 192.87388718 214.59358521 192.04294037 214.94854736 191.18681335 C219.06756653 181.26176772 223.25120827 171.36408985 227.43579102 161.46655273 C228.24138597 159.56030792 229.04696858 157.65405789 229.85253906 155.74780273 C231.88992195 150.92737828 233.92809503 146.10728832 235.9664917 141.28729248 C239.5619615 132.78519516 243.15602827 124.28250559 246.74829102 115.77905273 C247.14141479 114.84852081 247.53453857 113.91798889 247.9395752 112.95925903 C253.34144722 100.17031455 258.718591 87.37125268 264.0736084 74.56262207 C265.17706895 71.92490202 266.28221943 69.28789666 267.38793945 66.65112305 C270.96072899 58.12867005 274.52126853 49.60164035 278.0473938 41.05975342 C279.77166018 36.88856875 281.50584764 32.72155053 283.24169922 28.55517578 C284.07203243 26.5555682 284.89796367 24.55412638 285.71923828 22.55078125 C286.85955038 19.77046447 288.01505148 16.99692475 289.17407227 14.22436523 C289.50667557 13.40247711 289.83927887 12.58058899 290.18196106 11.73379517 C290.50460434 10.97029755 290.82724762 10.20679993 291.15966797 9.42016602 C291.43180618 8.76154572 291.7039444 8.10292542 291.98432922 7.42434692 C293.7644061 4.43109404 295.41797189 2.55960683 298.18579102 0.40405273 C301.20378446 -0.31135322 304.13670451 -0.26979355 307.22705078 -0.22705078 C308.12843781 -0.23420609 309.02982483 -0.24136139 309.95852661 -0.24873352 C312.93193554 -0.26561433 315.90383561 -0.24622302 318.87719727 -0.22485352 C320.94555282 -0.2256822 323.01390832 -0.22814155 325.08226013 -0.23216248 C329.41409154 -0.23501996 333.74540575 -0.22032243 338.07714844 -0.19287109 C343.63147318 -0.15876738 349.18487438 -0.16481422 354.73924351 -0.18353367 C359.00892342 -0.19409775 363.27838812 -0.18517152 367.54804802 -0.17014885 C369.59618427 -0.16496368 371.64434297 -0.16545289 373.69247627 -0.1716938 C376.55345194 -0.17713962 379.41310122 -0.15679191 382.27392578 -0.12939453 C383.54499931 -0.13918335 383.54499931 -0.13918335 384.8417511 -0.14916992 C388.65586414 -0.08701164 390.58092724 -0.03222012 393.74057007 2.24674988 C395.18579102 4.40405273 395.18579102 4.40405273 395.22119141 7.4543457 C394.09534226 12.74263999 391.76691093 17.66404584 389.61938477 22.59936523 C388.92143295 24.23050262 388.92143295 24.23050262 388.2093811 25.89459229 C386.68870212 29.44291668 385.15612264 32.98596329 383.62329102 36.52905273 C382.55906887 39.00312126 381.49735775 41.47826499 380.43554688 43.95336914 C377.36370991 51.10854119 374.27572088 58.25667481 371.18579102 65.40405273 C370.42945877 67.15594225 369.6732582 68.90788863 368.91723633 70.65991211 C366.41470762 76.45820282 363.90973226 82.25541866 361.39648438 88.04907227 C355.54844378 101.53373877 349.76175554 115.04452273 343.9768486 128.5563736 C337.07225709 144.68347978 330.16294506 160.80818686 323.18579102 176.90405273 C316.53834542 192.23972007 309.95221217 207.60137673 303.37329102 222.96655273 C295.79561109 240.66433043 288.19628907 258.35232024 280.55340576 276.02203369 C273.66643004 291.94680255 266.8276022 307.89197928 259.99829102 323.84155273 C252.6264983 341.05698771 245.2530182 358.27151028 237.79418945 375.44946289 C237.17335843 376.87961142 236.55258981 378.30978703 235.93188477 379.73999023 C235.62840118 380.43923615 235.3249176 381.13848206 235.01223755 381.85891724 C233.00342647 386.49535425 231.01759249 391.14114986 229.04348755 395.79246521 C227.62501792 399.13272004 226.19979356 402.47007485 224.77416992 405.80728149 C224.10758983 407.37274134 223.44415997 408.93954766 222.78442383 410.50790405 C214.63068738 429.88607452 204.73402263 447.05021872 190.18579102 462.40405273 C189.35305664 463.30124023 188.52032227 464.19842773 187.66235352 465.12280273 C171.03679804 482.47968763 149.55754238 493.96207874 126.62329102 500.65405273 C125.78531982 500.9004248 124.94734863 501.14679688 124.08398438 501.40063477 C112.894876 504.52895856 101.8030458 505.7143994 90.20922852 505.70483398 C88.44961288 505.71126167 88.44961288 505.71126167 86.65444946 505.71781921 C84.20250083 505.72351296 81.75053533 505.72409984 79.29858398 505.71972656 C75.53544054 505.71653121 71.77305837 505.74020915 68.01000977 505.76538086 C65.61808367 505.76765073 63.22615547 505.7683588 60.83422852 505.76733398 C59.70931 505.77654373 58.58439148 505.78575348 57.42538452 505.79524231 C56.3864505 505.78901352 55.34751648 505.78278473 54.27709961 505.77636719 C53.36366791 505.77699661 52.45023621 505.77762604 51.50912476 505.77827454 C49.18579102 505.40405273 49.18579102 505.40405273 47.3918457 504.3523407 C45.52966227 501.34412755 45.76879795 498.29010986 45.79760742 494.85913086 C45.79235046 494.09297958 45.78709351 493.32682831 45.78167725 492.53746033 C45.76846601 490.00320083 45.77721903 487.4695687 45.78735352 484.93530273 C45.7853331 483.17557657 45.78242193 481.41585122 45.77865601 479.65612793 C45.77423114 475.96736686 45.78066887 472.27882365 45.79467773 468.59008789 C45.81176979 463.85853992 45.80192946 459.12750244 45.78396034 454.39597321 C45.77312685 450.76202539 45.77656683 447.12819888 45.78434372 443.49424744 C45.78634693 441.74950602 45.7838822 440.00475364 45.77690506 438.26002502 C45.76929762 435.82271088 45.78088418 433.38622682 45.79760742 430.94897461 C45.79153473 430.22576523 45.78546204 429.50255585 45.77920532 428.75743103 C45.81567282 425.89284383 45.86943097 423.87961987 47.48066711 421.45753479 C50.5045416 419.58928492 53.98826455 419.96315611 57.43969727 419.96264648 C58.25518539 419.94943863 59.07067352 419.93623077 59.91087341 419.92262268 C62.52337951 419.88171681 65.13553744 419.86008632 67.74829102 419.84155273 C87.85721032 419.65551563 103.2739497 418.30041818 118.35766602 403.39624023 C125.77364413 395.72367129 131.45046756 387.4059628 135.18579102 377.40405273 C135.58926758 376.32768555 135.99274414 375.25131836 136.40844727 374.14233398 C139.95060496 363.80403645 139.21281905 356.61947551 134.67797852 346.78686523 C134.32087799 345.9852597 133.96377747 345.18365417 133.59585571 344.35775757 C132.42855361 341.74307745 131.24453236 339.13632563 130.06079102 336.52905273 C128.8174858 333.75267535 127.57873556 330.97429252 126.34002686 328.19586182 C125.50086774 326.31463634 124.66024358 324.43406371 123.81817627 322.55413818 C120.32001975 314.73949998 116.92765179 306.88324903 113.57843018 299.00384521 C107.87785844 285.59415159 102.05916857 272.23887781 96.18579102 258.90405273 C90.6189879 246.26526948 85.10382232 233.60734029 79.68579102 220.90405273 C74.32992649 208.34666951 68.87797099 195.83439327 63.37329102 183.34155273 C57.22902221 169.39666538 51.16888984 155.41883529 45.18579102 141.40405273 C38.85324654 126.57214551 32.42988084 111.78329334 25.93005371 97.0239563 C19.88809286 83.30379301 13.89896324 69.56202578 7.97827148 55.7890625 C4.73161733 48.24371229 1.44448188 40.7202958 -1.92358398 33.22827148 C-2.90626821 31.02999412 -3.88810693 28.8313409 -4.86975098 26.63259888 C-5.49103846 25.24883498 -6.11697423 23.86714711 -6.7479248 22.48776245 C-7.61488051 20.5924173 -8.46591809 18.69062095 -9.31420898 16.78686523 C-9.79889648 15.71839355 -10.28358398 14.64992187 -10.78295898 13.54907227 C-11.96928702 9.93110878 -12.20972993 7.18790724 -11.81420898 3.40405273 C-8.70495104 -0.68016737 -4.74682379 -0.02506429 0 0 Z " fill="#FFFFFF" transform="translate(11.814208984375,158.595947265625)"/>
<path d="M0 0 C47.77875011 -0.88190961 95.60143923 15.39840021 131.59765625 47.12109375 C132.55800781 47.96027344 133.51835938 48.79945313 134.5078125 49.6640625 C169.94158912 81.09502837 191.4994152 124.15838269 196.34765625 171.24609375 C196.46325344 173.20278769 196.54202136 175.16177789 196.59765625 177.12109375 C196.61812012 177.83942383 196.63858398 178.55775391 196.65966797 179.29785156 C197.41185674 210.16867343 197.41185674 210.16867343 191.59765625 218.12109375 C188.45222426 219.69380975 185.08627146 219.26534341 181.63270569 219.26153564 C180.80006885 219.26450677 179.96743202 219.26747789 179.10956377 219.27053905 C176.30358262 219.27925032 173.49764401 219.28073633 170.69165039 219.28222656 C168.68639535 219.28685295 166.68114119 219.29187737 164.67588806 219.29727173 C159.2173018 219.31041343 153.75872784 219.31684392 148.30012822 219.32128239 C144.89327976 219.32420976 141.48643469 219.32831388 138.07958794 219.33278656 C127.43023572 219.34646504 116.78089122 219.35613045 106.13153082 219.35998845 C93.81963209 219.36447274 81.50784419 219.38203638 69.19597918 219.41098905 C59.69108509 219.43256861 50.18622226 219.44269071 40.68130392 219.44402957 C34.99872073 219.44508011 29.31624166 219.45104083 23.63368416 219.46884918 C18.29116278 219.48526596 12.94882453 219.48751663 7.606287 219.47871017 C5.6418331 219.4779364 3.67736962 219.48232692 1.71294022 219.49216843 C-0.96173113 219.50478588 -3.63574382 219.49906723 -6.31040955 219.48858643 C-7.09406023 219.49664283 -7.87771092 219.50469923 -8.6851086 219.51299977 C-13.90389684 219.46492417 -13.90389684 219.46492417 -16.38385963 217.75423717 C-17.88290288 215.35051522 -17.79107389 213.43014488 -17.80639648 210.61157227 C-17.82542274 208.91950401 -17.82542274 208.91950401 -17.84483337 207.19325256 C-17.84189774 205.97447922 -17.8389621 204.75570587 -17.8359375 203.5 C-17.84117935 202.24855698 -17.8464212 200.99711395 -17.8518219 199.70774841 C-17.85825142 197.05867165 -17.85832858 194.41045435 -17.84838867 191.76147461 C-17.83690324 188.37052815 -17.85710055 184.98062373 -17.88630581 181.58981419 C-17.90908916 178.35153746 -17.9022003 175.11333812 -17.8984375 171.875 C-17.90967148 170.65825089 -17.92090546 169.44150177 -17.93247986 168.18788147 C-17.92309891 167.05668381 -17.91371796 165.92548615 -17.90405273 164.76000977 C-17.90388657 163.76534195 -17.9037204 162.77067413 -17.90354919 161.74586487 C-17.40234375 159.12109375 -17.40234375 159.12109375 -16.04194641 156.80278015 C-11.81385755 154.10907187 -7.57886626 154.55127385 -2.66699219 154.57519531 C-1.57400818 154.56485764 -0.48102417 154.55451996 0.64508057 154.54386902 C4.25962973 154.5143592 7.87362091 154.51294006 11.48828125 154.51171875 C13.99364292 154.49674271 16.49899469 154.48001679 19.0043335 154.46160889 C24.92575054 154.42233124 30.84706551 154.40070963 36.76858306 154.38763499 C44.17265427 154.37020553 51.57651683 154.32537519 58.98046875 154.28125 C72.18614906 154.20586498 85.39180733 154.15486207 98.59765625 154.12109375 C100.37152443 148.7994892 96.91263879 143.98200721 94.59765625 139.12109375 C89.88411076 129.9189442 84.53660611 121.84744217 77.59765625 114.12109375 C76.97375 113.4146875 76.34984375 112.70828125 75.70703125 111.98046875 C58.05519807 93.14195771 32.29830311 84.24189639 7.04296875 82.9375 C-22.65120366 82.37536088 -48.34007542 93.70167082 -69.65234375 113.93359375 C-89.44671747 134.52871075 -98.82596603 161.89914474 -98.70288086 190.11328125 C-98.21015255 214.82482144 -89.99702314 238.58638889 -73.40234375 257.12109375 C-72.603125 258.01441406 -71.80390625 258.90773438 -70.98046875 259.828125 C-52.55421566 279.31743115 -26.23234212 290.08483052 0.46655273 291.24584961 C32.14417646 292.02510604 60.35376388 287.16744032 84.59765625 265.12109375 C85.76741654 263.92341718 86.928226 262.71696096 88.08203125 261.50390625 C89.00060913 260.54605225 89.00060913 260.54605225 89.93774414 259.56884766 C91.14740996 258.29347909 92.34019855 257.00183621 93.51342773 255.69287109 C96.3197306 252.71910643 97.91902861 251.27957096 101.9765625 250.33203125 C107.09288396 251.44691468 110.29230615 254.03161566 114.34765625 257.24609375 C116.03874701 258.53947511 117.7301624 259.83243211 119.421875 261.125 C120.28087402 261.79031738 121.13987305 262.45563477 122.02490234 263.14111328 C126.02365024 266.21853266 130.09173213 269.1992959 134.16015625 272.18359375 C134.93391602 272.75529297 135.70767578 273.32699219 136.50488281 273.91601562 C140.54138269 276.89593688 144.59776465 279.84349785 148.6875 282.75 C149.51113037 283.3370874 150.33476074 283.9241748 151.18334961 284.52905273 C152.75195533 285.64463612 154.32419899 286.7551281 155.90063477 287.85961914 C163.22731139 293.07452348 163.22731139 293.07452348 164.59765625 296.12109375 C159.99119332 315.47442121 130.84616777 334.4153639 115.09765625 344.37109375 C112.9408732 345.63807099 110.77370061 346.88749114 108.59765625 348.12109375 C108.00146484 348.47091309 107.40527344 348.82073242 106.79101562 349.18115234 C62.00371411 375.34551566 3.92017045 381.25275633 -45.92333984 368.29443359 C-71.22732491 361.29759332 -94.64915708 350.28927406 -115.40234375 334.12109375 C-115.97597656 333.67443359 -116.54960937 333.22777344 -117.140625 332.76757812 C-136.31171526 317.6147843 -152.32510493 299.37910299 -164.40234375 278.12109375 C-165.05589844 276.99960937 -165.70945312 275.878125 -166.3828125 274.72265625 C-190.39245188 232.48218522 -193.5230227 182.47288851 -181.40234375 136.12109375 C-174.35049408 110.72366874 -160.77959081 86.83528094 -143.40234375 67.12109375 C-142.5515625 66.14914063 -141.70078125 65.1771875 -140.82421875 64.17578125 C-107.22988333 26.36016808 -60.04774506 4.59734807 -9.83984375 0.37109375 C-6.5604014 0.20968062 -3.28127995 0.11678494 0 0 Z " fill="#FFFFFF" transform="translate(598.40234375,151.87890625)"/>
<path d="M0 0 C0.86222672 -0.00700928 1.72445343 -0.01401855 2.61280823 -0.02124023 C5.46160125 -0.03883876 8.30940008 -0.027191 11.15820312 -0.01367188 C13.1383076 -0.01636626 15.11841079 -0.02024823 17.09851074 -0.02526855 C21.24793091 -0.03116612 25.3970066 -0.02259225 29.54638672 -0.00390625 C34.86643645 0.01888335 40.18567904 0.00576167 45.50569916 -0.01819611 C49.59436123 -0.03264704 53.6828318 -0.02805131 57.77149963 -0.01768494 C59.73311966 -0.01501571 61.69475705 -0.01829429 63.65635681 -0.02760315 C66.39767543 -0.0377571 69.13768518 -0.02228414 71.87890625 0 C73.09623192 -0.01214539 73.09623192 -0.01214539 74.33815002 -0.02453613 C77.67613725 0.02575944 79.90976458 0.13073032 82.64779419 2.13039738 C85.03345352 5.30901576 84.93923381 7.2644084 84.93888187 11.22040462 C84.94428684 11.89647472 84.9496918 12.57254482 84.95526055 13.26910189 C84.96856599 15.54532466 84.95327549 17.82046508 84.93824768 20.09666443 C84.94197304 21.74077657 84.947461 23.3848855 84.95456451 25.02898651 C84.96905196 29.55559895 84.95862286 34.08186853 84.94428146 38.60846889 C84.93319011 43.48737543 84.94515264 48.36622986 84.95446777 53.24513245 C84.96757578 61.70396019 84.96638158 70.16268916 84.95587349 78.62151909 C84.94094629 90.86578199 84.95084004 103.10992883 84.96739268 115.35418511 C84.99387398 135.23734722 85.00471197 155.12048334 85.00366211 175.00366211 C85.00357463 176.78952291 85.00357463 176.78952291 85.00348537 178.61146171 C85.00321955 183.43486679 85.00290228 188.25827188 85.00252211 193.08167696 C85.00155695 206.34050309 85.00288199 219.59932843 85.00561523 232.8581543 C85.00585513 234.04455139 85.00609502 235.23094849 85.00634218 236.45329701 C85.01075209 256.25018644 85.02700085 276.04705176 85.05083603 295.84392697 C85.06489612 308.05273229 85.06779601 320.2614459 85.05621313 332.47025437 C85.04887822 340.84286292 85.05196719 349.21542536 85.06317157 357.5880295 C85.06923228 362.41592392 85.07036682 367.24368921 85.0582943 372.07157516 C85.04729319 376.49776983 85.05021324 380.92373625 85.06383776 385.34992159 C85.06631885 386.94490882 85.06379926 388.53991401 85.05556387 390.13488191 C84.99121652 403.4666421 85.77132617 416.692225 94.43945312 427.51757812 C102.37447168 435.41911559 111.77775131 436.84383904 122.49975586 437.69628906 C126.71513725 438.08172823 129.49239132 438.39735413 132.43945312 441.51757812 C132.95411682 444.65402222 132.95411682 444.65402222 132.97290039 448.57177734 C132.98151596 449.28594818 132.99013153 450.00011902 132.99900818 450.7359314 C133.02172311 453.09841087 133.01491871 455.45970911 133.00585938 457.82226562 C133.01109351 459.46510166 133.01736921 461.10793467 133.02464294 462.75076294 C133.035058 466.19580207 133.03047156 469.64042847 133.01586914 473.08544922 C132.99870117 477.49650039 133.02214485 481.90624657 133.05735874 486.31715202 C133.07934336 489.71103519 133.07788844 493.10460682 133.06959343 496.49853897 C133.06877406 498.12441563 133.07563488 499.75031519 133.09036446 501.37612534 C133.1078265 503.65308943 133.0932573 505.92771881 133.07055664 508.20458984 C133.06959488 509.49904022 133.06863312 510.7934906 133.06764221 512.12716675 C132.27610311 516.39919762 130.82939119 517.87991974 127.43945312 520.51757812 C124.00805664 521.1328125 124.00805664 521.1328125 120.06835938 521.11132812 C119.35800034 521.11268265 118.6476413 521.11403717 117.91575623 521.11543274 C115.60999138 521.1104623 113.30717695 521.06639386 111.00195312 521.01757812 C109.40755485 520.99870697 107.81315376 520.98007219 106.21875 520.96166992 C73.93973356 520.44741332 41.16655404 514.29649194 17.03320312 491.29882812 C-13.93123335 458.09599865 -12.873824 409.7625243 -12.85131431 367.29011774 C-12.85090148 362.41784211 -12.86198794 357.54558924 -12.87142944 352.67332458 C-12.88793061 343.16323983 -12.8935337 333.65317989 -12.8946542 324.14308201 C-12.89560832 316.41718849 -12.8997366 308.69130309 -12.90605545 300.96541214 C-12.92362534 279.03597612 -12.93289909 257.10655955 -12.9313945 235.17711644 C-12.93131459 233.99879497 -12.93123468 232.8204735 -12.93115234 231.60644531 C-12.93107058 230.42668029 -12.93098882 229.24691528 -12.93090458 228.0313998 C-12.93008923 208.85251642 -12.94930056 189.67371109 -12.97742908 170.49485032 C-13.00611863 150.77767257 -13.01997207 131.060533 -13.01824152 111.34333384 C-13.01757706 100.28260081 -13.02309638 89.22195002 -13.04459763 78.16123581 C-13.06275594 68.76096947 -13.06719968 59.36082283 -13.05357878 49.9605466 C-13.04702668 45.16398315 -13.04701325 40.36764975 -13.06428528 35.57110786 C-13.07991847 31.1848988 -13.07725343 26.79910412 -13.05971701 22.41290577 C-13.05662588 20.82265299 -13.06035824 19.23237002 -13.07143717 17.64215283 C-13.08546044 15.48747586 -13.07505206 13.33427263 -13.05832481 11.17964745 C-13.05875955 9.98102463 -13.05919429 8.78240182 -13.0596422 7.5474571 C-11.82886056 0.07569923 -6.49548131 -0.0648061 0 0 Z " fill="#FFFFFF" transform="translate(1071.560546875,-0.517578125)"/>
<path d="M0 0 C0.86222672 -0.00700928 1.72445343 -0.01401855 2.61280823 -0.02124023 C5.46160125 -0.03883876 8.30940008 -0.027191 11.15820312 -0.01367188 C13.1383076 -0.01636626 15.11841079 -0.02024823 17.09851074 -0.02526855 C21.24793091 -0.03116612 25.3970066 -0.02259225 29.54638672 -0.00390625 C34.86643645 0.01888335 40.18567904 0.00576167 45.50569916 -0.01819611 C49.59436123 -0.03264704 53.6828318 -0.02805131 57.77149963 -0.01768494 C59.73311966 -0.01501571 61.69475705 -0.01829429 63.65635681 -0.02760315 C66.39767543 -0.0377571 69.13768518 -0.02228414 71.87890625 0 C73.09623192 -0.01214539 73.09623192 -0.01214539 74.33815002 -0.02453613 C77.67613725 0.02575944 79.90976458 0.13073032 82.64779419 2.13039738 C85.03345352 5.30901576 84.93923381 7.2644084 84.93888187 11.22040462 C84.94428684 11.89647472 84.9496918 12.57254482 84.95526055 13.26910189 C84.96856599 15.54532466 84.95327549 17.82046508 84.93824768 20.09666443 C84.94197304 21.74077657 84.947461 23.3848855 84.95456451 25.02898651 C84.96905196 29.55559895 84.95862286 34.08186853 84.94428146 38.60846889 C84.93319011 43.48737543 84.94515264 48.36622986 84.95446777 53.24513245 C84.96757578 61.70396019 84.96638158 70.16268916 84.95587349 78.62151909 C84.94094629 90.86578199 84.95084004 103.10992883 84.96739268 115.35418511 C84.99387398 135.23734722 85.00471197 155.12048334 85.00366211 175.00366211 C85.00357463 176.78952291 85.00357463 176.78952291 85.00348537 178.61146171 C85.00321955 183.43486679 85.00290228 188.25827188 85.00252211 193.08167696 C85.00155695 206.34050309 85.00288199 219.59932843 85.00561523 232.8581543 C85.00585513 234.04455139 85.00609502 235.23094849 85.00634218 236.45329701 C85.01075209 256.25018644 85.02700085 276.04705176 85.05083603 295.84392697 C85.06489612 308.05273229 85.06779601 320.2614459 85.05621313 332.47025437 C85.04887822 340.84286292 85.05196719 349.21542536 85.06317157 357.5880295 C85.06923228 362.41592392 85.07036682 367.24368921 85.0582943 372.07157516 C85.04729319 376.49776983 85.05021324 380.92373625 85.06383776 385.34992159 C85.06631885 386.94490882 85.06379926 388.53991401 85.05556387 390.13488191 C84.99121652 403.4666421 85.77132617 416.692225 94.43945312 427.51757812 C102.37447168 435.41911559 111.77775131 436.84383904 122.49975586 437.69628906 C126.71513725 438.08172823 129.49239132 438.39735413 132.43945312 441.51757812 C132.95411682 444.65402222 132.95411682 444.65402222 132.97290039 448.57177734 C132.98151596 449.28594818 132.99013153 450.00011902 132.99900818 450.7359314 C133.02172311 453.09841087 133.01491871 455.45970911 133.00585938 457.82226562 C133.01109351 459.46510166 133.01736921 461.10793467 133.02464294 462.75076294 C133.035058 466.19580207 133.03047156 469.64042847 133.01586914 473.08544922 C132.99870117 477.49650039 133.02214485 481.90624657 133.05735874 486.31715202 C133.07934336 489.71103519 133.07788844 493.10460682 133.06959343 496.49853897 C133.06877406 498.12441563 133.07563488 499.75031519 133.09036446 501.37612534 C133.1078265 503.65308943 133.0932573 505.92771881 133.07055664 508.20458984 C133.06959488 509.49904022 133.06863312 510.7934906 133.06764221 512.12716675 C132.27610311 516.39919762 130.82939119 517.87991974 127.43945312 520.51757812 C124.00805664 521.1328125 124.00805664 521.1328125 120.06835938 521.11132812 C119.35800034 521.11268265 118.6476413 521.11403717 117.91575623 521.11543274 C115.60999138 521.1104623 113.30717695 521.06639386 111.00195312 521.01757812 C109.40755485 520.99870697 107.81315376 520.98007219 106.21875 520.96166992 C73.93973356 520.44741332 41.16655404 514.29649194 17.03320312 491.29882812 C-13.93123335 458.09599865 -12.873824 409.7625243 -12.85131431 367.29011774 C-12.85090148 362.41784211 -12.86198794 357.54558924 -12.87142944 352.67332458 C-12.88793061 343.16323983 -12.8935337 333.65317989 -12.8946542 324.14308201 C-12.89560832 316.41718849 -12.8997366 308.69130309 -12.90605545 300.96541214 C-12.92362534 279.03597612 -12.93289909 257.10655955 -12.9313945 235.17711644 C-12.93131459 233.99879497 -12.93123468 232.8204735 -12.93115234 231.60644531 C-12.93107058 230.42668029 -12.93098882 229.24691528 -12.93090458 228.0313998 C-12.93008923 208.85251642 -12.94930056 189.67371109 -12.97742908 170.49485032 C-13.00611863 150.77767257 -13.01997207 131.060533 -13.01824152 111.34333384 C-13.01757706 100.28260081 -13.02309638 89.22195002 -13.04459763 78.16123581 C-13.06275594 68.76096947 -13.06719968 59.36082283 -13.05357878 49.9605466 C-13.04702668 45.16398315 -13.04701325 40.36764975 -13.06428528 35.57110786 C-13.07991847 31.1848988 -13.07725343 26.79910412 -13.05971701 22.41290577 C-13.05662588 20.82265299 -13.06035824 19.23237002 -13.07143717 17.64215283 C-13.08546044 15.48747586 -13.07505206 13.33427263 -13.05832481 11.17964745 C-13.05875955 9.98102463 -13.05919429 8.78240182 -13.0596422 7.5474571 C-11.82886056 0.07569923 -6.49548131 -0.0648061 0 0 Z " fill="#FFFFFF" transform="translate(871.560546875,-0.517578125)"/>
<path d="M0 0 C16.87981801 14.90910451 30.9997249 31.53363619 41.81054688 51.34228516 C42.15424316 51.96925293 42.49793945 52.5962207 42.85205078 53.2421875 C48.60274489 63.8773285 52.87870815 74.9246701 56.81054688 86.34228516 C57.19726562 87.45087891 57.58398438 88.55947266 57.98242188 89.70166016 C58.95952115 92.81731633 59.2337279 95.09789727 58.81054688 98.34228516 C57.28573608 100.48962402 57.28573608 100.48962402 54.81054688 102.34228516 C52.01927727 102.73702979 49.62225734 102.88988877 46.83251953 102.85986328 C46.03202682 102.86687256 45.23153412 102.87388184 44.40678406 102.88110352 C41.76237214 102.89869822 39.11903206 102.88705376 36.47460938 102.87353516 C34.63381749 102.87623019 32.793027 102.8801127 30.95223999 102.88513184 C27.0936732 102.89102932 23.23547684 102.88245793 19.37695312 102.86376953 C14.43821937 102.84101179 9.50035664 102.85408118 4.56165504 102.87805939 C0.75942466 102.89253802 -3.0426005 102.88790137 -6.84483719 102.87754822 C-8.66524992 102.87488497 -10.48568146 102.87813653 -12.30607224 102.88746643 C-14.85542612 102.8976626 -17.40338623 102.88208774 -19.95263672 102.85986328 C-20.70089218 102.86796021 -21.44914764 102.87605713 -22.22007751 102.88439941 C-27.33651776 102.80205584 -30.23642003 101.54707392 -34.18945312 98.34228516 C-35.66162109 96.39453125 -35.66162109 96.39453125 -36.68164062 94.36572266 C-37.07262939 93.61709961 -37.46361816 92.86847656 -37.86645508 92.09716797 C-38.26179443 91.31180664 -38.65713379 90.52644531 -39.06445312 89.71728516 C-42.8187001 82.60816407 -46.85702587 76.39232684 -52.18945312 70.34228516 C-52.95773437 69.37548828 -53.72601562 68.40869141 -54.51757812 67.41259766 C-70.63279753 48.0682359 -96.8647159 38.63390294 -121.18945312 36.34228516 C-146.7463517 34.69598187 -173.72495361 42.59996716 -193.20898438 59.56884766 C-193.86253906 60.15408203 -194.51609375 60.73931641 -195.18945312 61.34228516 C-195.77082031 61.78314453 -196.3521875 62.22400391 -196.95117188 62.67822266 C-206.72937342 70.19991615 -213.63462017 81.43273227 -219.33789062 92.18603516 C-221.59467906 96.03305005 -224.09794024 100.29652872 -228.18945312 102.34228516 C-230.79224782 102.45092872 -233.36869522 102.49960185 -235.97216797 102.50341797 C-236.77558121 102.50838287 -237.57899445 102.51334778 -238.40675354 102.51846313 C-241.07130787 102.53309857 -243.73580267 102.53988897 -246.40039062 102.54541016 C-248.24883018 102.55116038 -250.09726972 102.55691812 -251.94570923 102.56268311 C-255.82448607 102.57319696 -259.70324216 102.57903714 -263.58203125 102.58251953 C-268.55446846 102.58800574 -273.52663203 102.61203483 -278.49898338 102.64049149 C-282.31823531 102.65910639 -286.13742117 102.66432285 -289.95671463 102.66585541 C-291.78995892 102.66888496 -293.62320196 102.67692364 -295.45640182 102.69004059 C-298.02046331 102.70707759 -300.58385425 102.70522675 -303.14794922 102.69873047 C-303.90653732 102.70794525 -304.66512543 102.71716003 -305.44670105 102.72665405 C-308.60756119 102.70154173 -310.85627198 102.52127807 -313.66494751 101.01239014 C-315.18945312 99.34228516 -315.18945312 99.34228516 -315.62304688 96.26416016 C-315.08875764 91.43148992 -313.83074872 87.17652958 -312.25195312 82.59228516 C-311.93911377 81.67487549 -311.62627441 80.75746582 -311.30395508 79.81225586 C-303.03020209 56.24269319 -290.19029327 34.93791826 -273.24414062 16.58447266 C-271.47255556 14.65122203 -269.79162971 12.67939182 -268.12695312 10.65478516 C-264.81833938 6.79175506 -261.10393589 3.57890897 -257.18945312 0.34228516 C-256.41384033 -0.30981934 -256.41384033 -0.30981934 -255.62255859 -0.97509766 C-246.31344934 -8.77898294 -236.68923094 -15.5532541 -226.18945312 -21.65771484 C-225.58697754 -22.01317383 -224.98450195 -22.36863281 -224.36376953 -22.73486328 C-154.37026464 -63.63641758 -60.69473271 -52.18913502 0 0 Z " fill="#FFFFFF" transform="translate(1560.189453125,191.65771484375)"/>
<path d="M0 0 C0.80034668 -0.00686325 1.60069336 -0.0137265 2.42529297 -0.02079773 C5.07496821 -0.03912021 7.7240542 -0.03521955 10.3737793 -0.02954102 C12.2160003 -0.03410125 14.05821959 -0.03940635 15.9004364 -0.04542542 C19.76491192 -0.05436799 23.62918093 -0.05192161 27.49365234 -0.04199219 C32.4402307 -0.03051968 37.38609339 -0.05068163 42.33257771 -0.07990932 C46.13907892 -0.09828185 49.94540914 -0.09797645 53.75194359 -0.0922718 C55.57515655 -0.09211862 57.39838112 -0.09816076 59.2215519 -0.11056328 C61.77575726 -0.125486 64.32864752 -0.1147864 66.8828125 -0.09765625 C67.63263901 -0.10732422 68.38246552 -0.11699219 69.15501404 -0.12695312 C74.2802982 -0.05518371 77.20972731 1.13852933 81.13549805 4.40405273 C82.57462477 6.73555134 83.74382346 8.88007217 84.88549805 11.34155273 C97.17056308 35.90868498 118.28701878 52.23821399 143.6472168 61.71655273 C170.8549058 70.64356288 198.72893495 67.16592717 224.03100586 54.5847168 C231.49151454 50.71954241 237.91655083 46.08519792 244.13549805 40.40405273 C244.9140918 39.70666992 245.69268555 39.00928711 246.49487305 38.29077148 C255.61702468 29.68763883 261.96492804 19.35100004 267.43237305 8.18139648 C269.92379588 4.11854871 272.62424114 1.90780504 277.13549805 0.40405273 C279.70948072 0.28761709 282.25745302 0.22602879 284.83227539 0.21118164 C286.00594414 0.19891541 286.00594414 0.19891541 287.20332336 0.18640137 C289.79268634 0.1615879 292.38199473 0.14504357 294.97143555 0.13061523 C295.85608112 0.12529156 296.7407267 0.11996788 297.65217972 0.11448288 C302.33280826 0.08777148 307.01341029 0.06838841 311.6940918 0.05395508 C315.56835473 0.04060313 319.44209255 0.01272498 323.31616211 -0.02807617 C327.99457927 -0.07734777 332.67251929 -0.10215881 337.35118484 -0.109272 C339.13340082 -0.11599016 340.91560591 -0.13122694 342.6976738 -0.15516281 C345.19232565 -0.18676358 347.6851324 -0.18685975 350.17993164 -0.17944336 C350.91465195 -0.19584869 351.64937225 -0.21225403 352.40635681 -0.22915649 C356.36339927 -0.18103876 357.99582962 0.29100295 361.11416626 2.81503296 C363.13549805 5.40405273 363.13549805 5.40405273 363.43237305 7.41186523 C356.15183106 35.59796349 342.6316746 61.79682522 323.13549805 83.40405273 C321.94689271 84.79894495 320.75924966 86.19465831 319.57299805 87.59155273 C288.05187838 123.12715463 240.58445953 146.41992821 193.13549805 149.40405273 C174.42571567 150.2455459 155.52117321 150.30173982 137.13549805 146.40405273 C135.89920654 146.14664307 135.89920654 146.14664307 134.63793945 145.8840332 C83.33265955 134.87106405 39.51472468 104.31468289 10.86499023 60.45922852 C1.90465282 46.41170954 -12.89365153 22.89447875 -11.66918945 5.65405273 C-9.55764863 -0.25006142 -5.67869143 -0.03381862 0 0 Z " fill="#FFFFFF" transform="translate(1256.864501953125,369.595947265625)"/>
<path d="M0 0 C0.85614395 0.00090637 1.7122879 0.00181274 2.59437561 0.00274658 C3.49532455 -0.00397064 4.3962735 -0.01068787 5.32452393 -0.01760864 C8.31378133 -0.03666357 11.30281509 -0.04051669 14.29212952 -0.04266357 C16.36477248 -0.04908659 18.43741452 -0.05581457 20.51005554 -0.06283569 C24.85963544 -0.07482743 29.20913581 -0.0785146 33.55873108 -0.07733154 C39.13660006 -0.07712832 44.71395974 -0.10442607 50.29170799 -0.13887596 C54.57420704 -0.1610975 58.85658265 -0.16517053 63.13913345 -0.16411209 C65.19566731 -0.16647538 67.25220421 -0.17533965 69.30868149 -0.19077682 C72.18422485 -0.21033959 75.05865871 -0.20463687 77.93421936 -0.19256592 C79.21236259 -0.20942444 79.21236259 -0.20942444 80.5163269 -0.22662354 C86.29639186 -0.16486413 86.29639186 -0.16486413 89.38476562 2.20396423 C90.82887792 4.20353017 91.91050554 6.00699626 92.87416077 8.27374268 C93.40070251 9.49516968 93.40070251 9.49516968 93.93788147 10.74127197 C94.31517395 11.64530762 94.69246643 12.54934326 95.08119202 13.48077393 C95.69837097 14.9286731 95.69837097 14.9286731 96.32801819 16.40582275 C97.86457986 20.0289109 99.38095474 23.6601989 100.89369202 27.29327393 C101.38367676 28.46841553 101.38367676 28.46841553 101.88356018 29.66729736 C106.29638038 40.25193337 110.69841995 50.84114086 115.06053162 61.4467926 C116.52078488 64.9938793 117.98901661 68.53515117 119.51844788 72.05303955 C119.97743469 73.11587158 120.43642151 74.17870361 120.90931702 75.27374268 C121.30022522 76.16085938 121.69113342 77.04797607 122.09388733 77.9619751 C123.32077159 81.53814048 123.05752857 83.72417515 121.89369202 87.29327393 C118.87249337 90.31447257 115.44584739 89.59644722 111.39247131 89.59967041 C110.5126358 89.60799393 109.63280029 89.61631744 108.7263031 89.62489319 C105.80679444 89.64906217 102.88750897 89.65777426 99.96791077 89.66436768 C97.94250418 89.67332969 95.91709829 89.68245145 93.89169312 89.69172668 C89.64047128 89.70823864 85.3893284 89.71592064 81.13807678 89.71881104 C75.69023549 89.72419307 70.24313633 89.76185648 64.79550457 89.8075552 C60.60989678 89.83729953 56.42446811 89.84453405 52.23876381 89.84553719 C50.23048826 89.84974572 48.22221248 89.86220531 46.21404076 89.88305473 C43.40317185 89.90991087 40.594028 89.90516069 37.78309631 89.89263916 C36.53839821 89.91489059 36.53839821 89.91489059 35.26855469 89.93759155 C31.12761305 89.88506175 29.39403069 89.67402864 26.00334167 87.09373474 C23.96726941 84.39094446 22.56294352 81.99664349 21.24989319 78.88653564 C20.79559433 77.82707733 20.34129547 76.76761902 19.87322998 75.67605591 C19.39916214 74.53653473 18.9250943 73.39701355 18.43666077 72.22296143 C17.93000381 71.03211945 17.42334686 69.84127747 16.90133667 68.61434937 C15.553837 65.44669501 14.22099447 62.27307705 12.89118958 59.09796143 C11.56422438 55.93668257 10.22357768 52.78122376 8.88392639 49.62530518 C6.8182687 44.7563214 4.76660134 39.88163872 2.72328186 35.00323486 C0.96744721 30.81809881 -0.81803671 26.6494034 -2.65074158 22.49737549 C-3.02953964 21.62992706 -3.40833771 20.76247864 -3.7986145 19.8687439 C-4.48281738 18.30594778 -5.17653228 16.74726006 -5.88238525 15.19412231 C-7.81211963 10.75435297 -8.62474104 7.22863289 -8.10630798 2.29327393 C-5.47818283 -0.33485123 -3.57873784 0.03916242 0 0 Z " fill="#FFFEFE" transform="translate(2041.1063079833984,158.70672607421875)"/>
<path d="M0 0 C0.33 0 0.66 0 1 0 C1.15511047 0.57495209 1.31022095 1.14990417 1.47003174 1.74227905 C3.52069704 8.97834644 6.30507097 15.77178898 9.296875 22.6640625 C9.80873352 23.85494476 10.32059204 25.04582703 10.84796143 26.27279663 C12.20160301 29.42181008 13.56182395 32.56793856 14.92346191 35.71350098 C16.28651815 38.8657824 17.64288365 42.02093928 19 45.17578125 C27.13394138 64.75532417 27.13394138 64.75532417 36 84 C28.29335634 94.96981711 20.50697916 105.87773028 12.64111328 116.73388672 C9.92351827 120.486448 7.21205527 124.24343419 4.5 128 C3.41669638 129.50002146 2.33336304 131.00002146 1.25 132.5 C0.445625 133.61375 0.445625 133.61375 -0.375 134.75 C-2 137 -3.625 139.25 -5.25 141.5 C-5.78713623 142.24386963 -6.32427246 142.98773926 -6.87768555 143.75415039 C-7.95151948 145.24071146 -9.02589322 146.72688275 -10.10083008 148.21264648 C-12.95925616 152.16508638 -15.80557629 156.12561688 -18.63671875 160.09765625 C-19.23097656 160.92845703 -19.82523438 161.75925781 -20.4375 162.61523438 C-21.58286143 164.21695075 -22.72492423 165.82103233 -23.86328125 167.42773438 C-24.37632813 168.14380859 -24.889375 168.85988281 -25.41796875 169.59765625 C-25.86938232 170.23195557 -26.3207959 170.86625488 -26.78588867 171.51977539 C-28 173 -28 173 -30 174 C-33.56543396 165.09806927 -37.12990085 156.19575209 -40.69317913 147.29295826 C-42.34829364 143.15776635 -44.00372427 139.02270161 -45.65991211 134.88793945 C-47.26222205 130.88765102 -48.8636562 126.88701297 -50.46451759 122.88614464 C-51.07132461 121.37004139 -51.67843183 119.85405827 -52.28586388 118.33820534 C-53.68439922 114.84788896 -55.07887256 111.35612595 -56.46224976 107.85977173 C-57.47015363 105.31441018 -58.50337104 102.78175166 -59.55752563 100.25521851 C-60.0255661 99.107117 -60.49360657 97.9590155 -60.97583008 96.77612305 C-61.39181961 95.77719528 -61.80780914 94.77826752 -62.23640442 93.74906921 C-63.08667385 90.68795992 -62.92588378 89.00935087 -62 86 C-60.89941406 84.06567383 -60.89941406 84.06567383 -59.515625 82.20703125 C-58.7412207 81.15225586 -58.7412207 81.15225586 -57.95117188 80.07617188 C-57.38978516 79.32916016 -56.82839844 78.58214844 -56.25 77.8125 C-55.05706507 76.19417742 -53.86436314 74.57568308 -52.671875 72.95703125 C-52.06021484 72.13283691 -51.44855469 71.30864258 -50.81835938 70.45947266 C-48.01206615 66.66374253 -45.25720952 62.83144699 -42.5 59 C-41.42086491 57.50499752 -40.34143662 56.01020664 -39.26171875 54.515625 C-38.72595215 53.77376953 -38.19018555 53.03191406 -37.63818359 52.26757812 C-35.97426906 49.96438316 -34.30949593 47.66181092 -32.64453125 45.359375 C-27.74654325 38.58458785 -22.85310685 31.80703227 -18 25 C-16.79479787 23.31191389 -15.5891958 21.62411466 -14.38330078 19.93652344 C-13.36282479 18.5079291 -12.34307667 17.07881476 -11.32373047 15.64941406 C-9.53166413 13.13886503 -7.73499198 10.63166641 -5.9375 8.125 C-5.36451172 7.320625 -4.79152344 6.51625 -4.20117188 5.6875 C-3.66943359 4.94757813 -3.13769531 4.20765625 -2.58984375 3.4453125 C-2.11409912 2.78031738 -1.63835449 2.11532227 -1.14819336 1.43017578 C-0.76928955 0.95821777 -0.39038574 0.48625977 0 0 Z " fill="#FFD200" transform="translate(2032,163)"/>
<path d="M0 0 C2.32332802 2.87447669 3.82137958 5.6073795 5.20141602 9.03027344 C5.60936905 10.03362732 6.01732208 11.0369812 6.43763733 12.07073975 C7.08919044 13.6986142 7.08919044 13.6986142 7.75390625 15.359375 C8.44443336 17.0633847 8.44443336 17.0633847 9.14891052 18.80181885 C10.62566385 22.44899477 12.09437461 26.09934354 13.5625 29.75 C15.0017184 33.31493404 16.44263291 36.87917537 17.88461304 40.44299316 C18.83788161 42.80079733 19.78908006 45.15943952 20.7381897 47.5189209 C23.09514844 53.36449092 25.49269769 59.18707188 27.97998047 64.97851562 C28.45072495 66.0806842 28.92146942 67.18285278 29.40647888 68.31842041 C30.29924139 70.40056903 31.20134521 72.47874507 32.114151 74.55218506 C32.5095256 75.47630188 32.90490021 76.4004187 33.31225586 77.35253906 C33.6636412 78.15725647 34.01502655 78.96197388 34.37705994 79.79107666 C35.09017307 82.31975052 34.90189259 83.56114072 34 86 C32.89941406 87.82080078 32.89941406 87.82080078 31.515625 89.6953125 C30.7412207 90.75492188 30.7412207 90.75492188 29.95117188 91.8359375 C29.38978516 92.59132813 28.82839844 93.34671875 28.25 94.125 C27.05712803 95.75248424 25.86442431 97.38009181 24.671875 99.0078125 C24.06021484 99.83829102 23.44855469 100.66876953 22.81835938 101.52441406 C20.02144589 105.33224203 17.26150036 109.1664572 14.5 113 C13.41686905 114.50014615 12.33353504 116.0001457 11.25 117.5 C10.71375 118.2425 10.1775 118.985 9.625 119.75 C4.75 126.5 4.75 126.5 3.12475586 128.75024414 C2.04211746 130.2493445 0.9595978 131.74853062 -0.12280273 133.24780273 C-2.84079823 137.01228168 -5.56088068 140.77521904 -8.28515625 144.53515625 C-9.37772967 146.04417997 -10.47017832 147.55329404 -11.5625 149.0625 C-12.09262695 149.79452637 -12.62275391 150.52655273 -13.16894531 151.28076172 C-15.95623659 155.13858372 -18.718577 159.01199357 -21.44921875 162.91015625 C-22.00343506 163.70091553 -22.55765137 164.4916748 -23.12866211 165.30639648 C-24.19118805 166.82586777 -25.25070998 168.34744512 -26.30688477 169.87133789 C-27.51360523 171.59814312 -28.75326413 173.30185977 -30 175 C-30.33 175 -30.66 175 -31 175 C-31.07331543 174.45939941 -31.14663086 173.91879883 -31.22216797 173.36181641 C-32.49548386 165.67312896 -35.2740232 158.73018755 -38.22238159 151.56890869 C-39.1448934 149.326647 -40.05537731 147.07981521 -40.96313477 144.83154297 C-43.70113518 138.05935059 -46.46611197 131.29828169 -49.24072266 124.54101562 C-51.12003154 119.9634893 -52.98730397 115.38119182 -54.84832764 110.79620361 C-55.92487081 108.1559732 -57.01622528 105.52218168 -58.10791016 102.88818359 C-58.76934097 101.26171276 -59.43002365 99.63493743 -60.08984375 98.0078125 C-60.40057327 97.26972351 -60.7113028 96.53163452 -61.03144836 95.7711792 C-62.61988064 91.80321705 -63.52441103 89.08282527 -62 85 C-60.9753418 83.23339844 -60.9753418 83.23339844 -59.69921875 81.609375 C-59.22299072 80.99143066 -58.7467627 80.37348633 -58.25610352 79.73681641 C-57.73846436 79.08116699 -57.2208252 78.42551758 -56.6875 77.75 C-55.58384138 76.31671578 -54.48234229 74.88176655 -53.3828125 73.4453125 C-52.81852539 72.70958008 -52.25423828 71.97384766 -51.67285156 71.21582031 C-49.05192464 67.74420141 -46.55431311 64.18989635 -44.0625 60.625 C-38.33488634 52.45354202 -32.50494616 44.35977934 -26.64990234 36.27929688 C-24.98915323 33.98501548 -23.3318875 31.68825963 -21.67578125 29.390625 C-16.3891695 22.0568042 -11.09039768 14.73228223 -5.75 7.4375 C-5.05076416 6.48097534 -5.05076416 6.48097534 -4.33740234 5.50512695 C-1.12083523 1.12083523 -1.12083523 1.12083523 0 0 Z " fill="#FFD200" transform="translate(1905,340)"/>
<path d="M0 0 C1.0714753 -0.0076664 1.0714753 -0.0076664 2.16459656 -0.01548767 C4.52135644 -0.02936584 6.8778233 -0.02842829 9.23461914 -0.02612305 C10.87602344 -0.03001093 12.51742674 -0.0343458 14.15882874 -0.03910828 C17.59778099 -0.04656664 21.03663058 -0.04628199 24.47558594 -0.04101562 C28.8784412 -0.03522119 33.28087575 -0.052153 37.68366146 -0.0753603 C41.07319081 -0.09010548 44.46261902 -0.09096829 47.85217476 -0.08785057 C49.47525427 -0.08836338 51.0983395 -0.09359358 52.72138786 -0.10366249 C54.99292061 -0.11602521 57.26363619 -0.10923692 59.53515625 -0.09765625 C60.82659042 -0.09828568 62.1180246 -0.0989151 63.44859314 -0.0995636 C67.09471222 0.30368267 68.94232148 1.05718282 71.83227539 3.2746582 C74.28267247 6.95025382 74.09627454 8.77544806 74.12280273 13.16113281 C74.12951996 13.8574028 74.13623718 14.55367279 74.14315796 15.27104187 C74.16215864 17.57310111 74.16606302 19.87486918 74.16821289 22.17700195 C74.17463897 23.77739075 74.18136718 25.37777836 74.18838501 26.97816467 C74.20036263 30.33312708 74.2040653 33.68798647 74.20288086 37.04296875 C74.20267754 41.34180684 74.22999007 45.63998478 74.26442528 49.93866634 C74.28666267 53.24409519 74.2907194 56.54936431 74.28966141 59.85486031 C74.29202174 61.43970581 74.30086963 63.02455543 74.31632614 64.60932732 C74.33592518 66.82628508 74.33017387 69.04180816 74.31811523 71.25878906 C74.32096527 72.51993027 74.32381531 73.78107147 74.32675171 75.08042908 C73.74439543 78.84234713 72.79713939 79.97594585 69.83227539 82.2746582 C66.89626357 83.74266411 63.92762705 83.43921462 60.70800781 83.45166016 C59.97447586 83.45823135 59.24094391 83.46480255 58.48518372 83.47157288 C56.05270286 83.49131637 53.62028377 83.50297087 51.18774414 83.51293945 C49.94214438 83.51905274 49.94214438 83.51905274 48.671381 83.52528954 C44.27604037 83.54615496 39.88073101 83.5604545 35.48535156 83.56982422 C30.94561873 83.58088857 26.40637607 83.61528708 21.86681652 83.65499592 C18.37607411 83.68114326 14.88544881 83.68951437 11.39461708 83.6931057 C9.72127281 83.69797671 8.04793395 83.7096054 6.37468529 83.72814369 C4.03097091 83.75249564 1.68852876 83.75157793 -0.65527344 83.74462891 C-1.3448111 83.75743896 -2.03434875 83.77024902 -2.74478149 83.78344727 C-7.4740625 83.73241173 -9.8424567 82.60414437 -13.16772461 79.2746582 C-14.60535041 76.39940661 -14.31093243 73.91449104 -14.32885742 70.70117188 C-14.33382233 70.02616135 -14.33878723 69.35115082 -14.34390259 68.65568542 C-14.35853158 66.41798896 -14.36532798 64.18036342 -14.37084961 61.94262695 C-14.37660119 60.38804624 -14.38235893 58.83346555 -14.38812256 57.27888489 C-14.39863515 54.01632354 -14.40447588 50.75378685 -14.40795898 47.49121094 C-14.41343922 43.31476116 -14.43745584 39.13863815 -14.46593094 34.96229076 C-14.48457581 31.74948686 -14.48976393 28.53676129 -14.49129486 25.32390785 C-14.4943186 23.78455128 -14.50233776 22.245196 -14.51548004 20.70589256 C-14.5325771 18.54912022 -14.53065168 16.39314116 -14.52416992 14.23632812 C-14.52781555 13.00992111 -14.53146118 11.7835141 -14.53521729 10.51994324 C-14.12890346 6.93183315 -13.39472156 5.09738687 -11.16772461 2.2746582 C-7.72659436 -0.28778413 -4.17732444 0.01491244 0 0 Z " fill="#FFD100" transform="translate(1402.167724609375,289.725341796875)"/>
</svg>
