<?xml version="1.0" encoding="UTF-8"?>
<svg version="1.1" xmlns="http://www.w3.org/2000/svg" width="2164" height="664">
<path d="M0 0 C0.86062042 -0.00525696 1.72124084 -0.01051392 2.60794067 -0.01593018 C5.45178396 -0.02912975 8.29506706 -0.02039147 11.13891602 -0.01025391 C13.11662402 -0.01227484 15.09433129 -0.01518644 17.07203674 -0.01895142 C21.21720473 -0.02337487 25.36217877 -0.01694366 29.50732422 -0.00292969 C34.81818577 0.01415096 40.12859212 0.00432817 45.43943691 -0.01364708 C49.52382326 -0.02449384 53.60810192 -0.02103427 57.69249153 -0.0132637 C59.65049353 -0.01126359 61.60850534 -0.01371435 63.5664959 -0.02070236 C66.30501016 -0.02833019 69.04279033 -0.01669344 71.78125 0 C72.99318275 -0.00910904 72.99318275 -0.00910904 74.229599 -0.0184021 C78.8074521 0.03323614 81.89024235 0.42418392 85.45532227 3.38818359 C86.88519287 5.50775146 86.88519287 5.50775146 87.99731445 7.93408203 C88.41057983 8.82446167 88.82384521 9.71484131 89.24963379 10.63220215 C89.64751099 11.54167603 90.04538818 12.4511499 90.45532227 13.38818359 C91.00138123 14.63396179 91.00138123 14.63396179 91.55847168 15.90490723 C92.65893403 18.47803046 93.72561484 21.06288227 94.78344727 23.65380859 C95.17675232 24.60850037 95.57005737 25.56319214 95.97528076 26.54681396 C97.22215452 29.57583464 98.46381997 32.60695797 99.70532227 35.63818359 C100.92867137 38.61313513 102.15304105 41.58766504 103.37756348 44.56213379 C104.18840866 46.5364821 104.99644423 48.51198669 105.80163574 50.48864746 C107.85429289 55.52506183 109.94337153 60.54034621 112.10571289 65.53076172 C112.52898865 66.52251404 112.9522644 67.51426636 113.3883667 68.53607178 C114.1917785 70.41613536 115.00798225 72.29080368 115.83917236 74.15875244 C117.98626897 79.22791464 119.2600756 82.90978625 117.45532227 88.38818359 C113.74755405 91.29658871 109.19765446 90.52790865 104.74633789 90.34545898 C102.92526496 90.28946756 101.10417863 90.23391037 99.28308105 90.1787262 C98.3188472 90.14615786 97.35461334 90.11358952 96.36116028 90.08003426 C91.23728401 89.91913199 86.1119743 89.8316585 80.98657227 89.73388672 C74.47126802 89.60809116 67.95955986 89.46007802 61.44750977 89.21557617 C56.17769699 89.01966506 50.91192765 88.90870645 45.63883972 88.85314751 C43.63837839 88.81692982 41.63821123 88.75037587 39.6398468 88.65190315 C28.91111807 87.87838877 28.91111807 87.87838877 19.44427299 92.05480766 C15.80022213 96.11534499 13.07873904 100.61465409 10.52738762 105.41822052 C9.18326679 107.88809644 7.5934376 110.11420891 5.89672852 112.35302734 C5.4159082 113.01753906 4.93508789 113.68205078 4.43969727 114.36669922 C3.97047852 115.01316406 3.50125977 115.65962891 3.01782227 116.32568359 C1.92534814 117.83477921 0.83290103 119.34389437 -0.25952148 120.85302734 C-0.80205566 121.60181152 -1.34458984 122.3505957 -1.90356445 123.12207031 C-4.62115936 126.87463145 -7.33269712 130.63156404 -10.04467773 134.38818359 C-13.84990207 139.6591579 -17.65767523 144.92823733 -21.47436523 150.19091797 C-22.5558018 151.68759513 -23.63269611 153.18756572 -24.70483398 154.69091797 C-27.43410263 158.51390089 -30.21677309 162.26506345 -33.13452148 165.94677734 C-33.70678467 166.69241943 -34.27904785 167.43806152 -34.86865234 168.20629883 C-35.9535158 169.61859667 -37.06381248 171.01186365 -38.203125 172.38061523 C-40.25073788 175.09633553 -41.62967306 177.07015959 -41.40551758 180.54614258 C-40.64883656 183.26843186 -39.64193505 185.78361371 -38.54467773 188.38818359 C-38.11574219 189.4995166 -37.68680664 190.61084961 -37.24487305 191.75585938 C-35.91267222 195.20545131 -34.53106933 198.63360361 -33.13998413 202.05981445 C-31.36764682 206.42691602 -29.61187262 210.80069314 -27.85327148 215.17333984 C-27.25229393 216.6660289 -27.25229393 216.6660289 -26.63917542 218.18887329 C-17.28733095 241.43624414 -8.08839868 264.74538538 1.15368652 288.0365448 C4.45924782 296.36603578 7.7702197 304.69333458 11.08927917 313.01745605 C12.88684881 317.52685004 14.68133846 322.03746539 16.47518921 326.54833984 C17.28799939 328.5899535 18.10228343 330.63098107 18.91812134 332.67138672 C20.02290065 335.43485133 21.12255036 338.2003023 22.22094727 340.96630859 C22.69841652 342.15465302 22.69841652 342.15465302 23.18553162 343.36700439 C26.98254894 352.96804055 26.98254894 352.96804055 25.48916626 356.9906311 C23.45532227 359.38818359 23.45532227 359.38818359 19.74942017 360.02310181 C18.17461304 360.05287473 16.59913659 360.05474939 15.02416992 360.03515625 C13.73345833 360.04829865 13.73345833 360.04829865 12.41667175 360.06170654 C9.56706572 360.08374501 6.71900708 360.06912982 3.86938477 360.05224609 C1.89024558 360.05561358 -0.08889159 360.06046562 -2.06802368 360.06674194 C-6.21929583 360.07411981 -10.37003051 360.06338059 -14.52124023 360.04003906 C-19.8402569 360.01158806 -25.15801019 360.02792633 -30.47698021 360.05790138 C-34.56571953 360.07598137 -38.65416009 360.07021243 -42.74290848 360.05726242 C-44.70370254 360.05392842 -46.66452378 360.05801527 -48.6252861 360.06966019 C-51.36916483 360.08237626 -54.11100894 360.06298034 -56.85473633 360.03515625 C-57.66426254 360.0452774 -58.47378876 360.05539856 -59.30784607 360.06582642 C-63.41640766 359.98873393 -65.08208587 359.74410097 -68.43899536 357.16130066 C-70.40699408 354.56950862 -71.72271727 352.37979264 -72.92553711 349.37133789 C-73.52333481 347.90362694 -73.52333481 347.90362694 -74.13320923 346.40626526 C-74.54743134 345.3522905 -74.96165344 344.29831573 -75.38842773 343.21240234 C-75.8351181 342.10593857 -76.28180847 340.99947479 -76.74203491 339.85948181 C-78.18820278 336.26955233 -79.61649403 332.67280076 -81.04467773 329.07568359 C-82.03058202 326.61929456 -83.01772712 324.16340319 -84.00610352 321.70800781 C-85.96034869 316.84879708 -87.90823567 311.98712166 -89.8503418 307.12304688 C-93.06196251 299.08464994 -96.32042462 291.06566614 -99.58935547 283.05044556 C-100.8876839 279.8648931 -102.18095495 276.67729855 -103.47436523 273.48974609 C-103.87896973 272.49281738 -104.28357422 271.49588867 -104.70043945 270.46875 C-104.97903809 269.78216309 -105.25763672 269.09557617 -105.54467773 268.38818359 C-109.67831154 272.25972105 -112.84478537 276.41568265 -116.04467773 281.07568359 C-117.1075699 282.60235916 -118.17140341 284.1283797 -119.23608398 285.65380859 C-119.78151855 286.43691406 -120.32695313 287.22001953 -120.88891602 288.02685547 C-123.5489701 291.82043304 -126.26372191 295.57383654 -128.98217773 299.32568359 C-129.52165039 300.07100342 -130.06112305 300.81632324 -130.61694336 301.58422852 C-131.71220204 303.09704643 -132.80774255 304.60966033 -133.90356445 306.12207031 C-136.07946511 309.12663888 -138.25133816 312.13410543 -140.42285156 315.1418457 C-141.50185487 316.63633757 -142.58111816 318.13064178 -143.66064453 319.62475586 C-146.42230056 323.44708111 -149.18111946 327.27140714 -151.93530273 331.09912109 C-165.98272769 350.61168841 -165.98272769 350.61168841 -170.54467773 356.38818359 C-170.9026796 356.92230865 -171.26068146 357.45643372 -171.62953186 358.00674438 C-174.75798394 360.26336954 -178.27529277 359.80405376 -181.99169922 359.77636719 C-182.85377991 359.78162415 -183.7158606 359.7868811 -184.60406494 359.79229736 C-187.45815062 359.80551755 -190.31167998 359.7967514 -193.16577148 359.78662109 C-195.14730435 359.78864143 -197.1288365 359.79155254 -199.11036682 359.7953186 C-203.2657071 359.79974485 -207.42085405 359.7933019 -211.57617188 359.77929688 C-216.90397526 359.76221602 -222.23132492 359.77203738 -227.5591116 359.79001427 C-231.65203776 359.80085348 -235.74485632 359.79740492 -239.83778572 359.78963089 C-241.80219641 359.78762869 -243.76661685 359.79008886 -245.73101616 359.79706955 C-248.47702791 359.80468498 -251.22230473 359.79307803 -253.96826172 359.77636719 C-255.18794395 359.78547623 -255.18794395 359.78547623 -256.43226624 359.79476929 C-259.62203963 359.75879198 -262.08213091 359.62662147 -264.94395447 358.15138245 C-266.79455982 356.11293814 -267.71081606 354.34592445 -268.73266602 351.78881836 C-269.11542694 350.84822067 -269.49818787 349.90762299 -269.89254761 348.93852234 C-270.29595367 347.91257462 -270.69935974 346.88662689 -271.11499023 345.82958984 C-271.5486087 344.75510086 -271.98222717 343.68061188 -272.4289856 342.57356262 C-273.85350766 339.03689616 -275.26141429 335.49385168 -276.66967773 331.95068359 C-277.66027118 329.4841787 -278.65188146 327.01811417 -279.64526367 324.55273438 C-281.41106462 320.16763604 -283.17334307 315.78115966 -284.93064117 311.39264679 C-288.80608969 301.71601698 -292.74550144 292.0662401 -296.70330811 282.42306519 C-298.53365485 277.96215159 -300.3590739 273.49922165 -302.18530273 269.03662109 C-302.9098862 267.26675372 -303.63449556 265.49689694 -304.35913086 263.72705078 C-307.71282413 255.53527343 -311.06382973 247.34239647 -314.4151001 239.14962769 C-316.2941623 234.55594148 -318.17331052 229.96229047 -320.05249023 225.36865234 C-320.424133 224.46017044 -320.79577576 223.55168854 -321.17868042 222.61567688 C-323.40818607 217.1657977 -325.6380997 211.71608566 -327.86834717 206.26651001 C-335.6803994 187.17783086 -343.48643921 168.08672514 -351.27893066 148.99005127 C-355.03345438 139.78913268 -358.78877387 130.58853887 -362.54467773 121.38818359 C-363.15817078 119.88538849 -363.15817078 119.88538849 -363.78405762 118.35223389 C-376.37727605 87.4901503 -376.37727605 87.4901503 -389.15600586 56.70458984 C-391.92818656 50.08410766 -394.69508877 43.46142586 -397.4593811 36.83764648 C-398.45757865 34.44709515 -399.45750835 32.05727356 -400.45751953 29.66748047 C-401.07910846 28.17858503 -401.70061286 26.68965429 -402.32202148 25.20068359 C-402.60285583 24.53081421 -402.88369019 23.86094482 -403.17303467 23.17077637 C-409.26029668 8.56262743 -409.26029668 8.56262743 -408.54467773 4.38818359 C-407.26235008 2.77611542 -407.26235008 2.77611542 -405.54467773 1.38818359 C-402.54397945 1.08139839 -399.74927761 0.95792017 -396.74633789 0.96826172 C-395.84684921 0.95979218 -394.94736053 0.95132263 -394.02061462 0.94259644 C-391.04151339 0.91916129 -388.06292675 0.91820592 -385.08374023 0.91943359 C-383.01492098 0.91233531 -380.9461037 0.90463681 -378.87728882 0.8963623 C-374.5378472 0.88290205 -370.19858754 0.88135539 -365.85913086 0.88720703 C-360.29806664 0.89310068 -354.73787619 0.86253226 -349.17698097 0.82209015 C-344.9029978 0.79623832 -340.6292256 0.79333354 -336.35517502 0.79698181 C-334.30504538 0.79528781 -332.25490629 0.7856185 -330.20485306 0.76783752 C-327.33657695 0.74570062 -324.4700767 0.75532333 -321.60180664 0.77294922 C-320.75487747 0.75968597 -319.9079483 0.74642273 -319.03535461 0.73275757 C-314.88834371 0.79196752 -313.06477748 1.00047757 -309.65170288 3.54473877 C-307.47362508 6.48406963 -306.10594947 9.0947704 -304.77514648 12.49853516 C-304.53748251 13.09568486 -304.29981853 13.69283457 -304.05495262 14.30807972 C-303.26825632 16.29367016 -302.50035149 18.28598693 -301.73217773 20.27880859 C-301.17049084 21.70695757 -300.60760346 23.13463489 -300.04360962 24.56187439 C-298.83302737 27.63252366 -297.6306604 30.70621557 -296.43463135 33.78256226 C-294.51729387 38.71391475 -292.58196118 43.638081 -290.64379883 48.5612793 C-288.28033227 54.56804554 -285.92096632 60.57638899 -283.56699944 66.5868845 C-279.49670973 76.97857695 -275.39578334 87.35775665 -271.27124023 97.72802734 C-270.97747812 98.46666771 -270.68371601 99.20530807 -270.38105202 99.96633148 C-268.90226451 103.6840784 -267.42285544 107.40157756 -265.94314575 111.11895752 C-263.25640859 117.86946285 -260.57496564 124.62207163 -257.89299965 131.37447357 C-256.37234125 135.20286704 -254.85130838 139.03111172 -253.33032227 142.859375 C-250.71392401 149.44491257 -248.0977552 156.03054127 -245.48168945 162.61621094 C-242.3664554 170.4584612 -239.25088879 178.30057928 -236.13499069 186.14256573 C-234.17337114 191.07953159 -232.21205744 196.01661877 -230.25102615 200.95381832 C-229.02553826 204.03885402 -227.79960955 207.12371447 -226.57366943 210.20857048 C-225.68290217 212.45066685 -224.79284256 214.69304322 -223.90283203 216.93544006 C-220.79987898 224.74847433 -217.6751435 232.552196 -214.5246582 240.34619141 C-213.54431076 242.77684473 -212.56431995 245.20764156 -211.58442497 247.63847733 C-210.65379012 249.942051 -209.7175453 252.24329118 -208.78114319 254.54452515 C-208.21888682 255.93842458 -207.65689575 257.33243108 -207.09521484 258.7265625 C-206.60137802 259.94405182 -206.1075412 261.16154114 -205.59873962 262.41592407 C-204.54467773 265.38818359 -204.54467773 265.38818359 -204.54467773 268.38818359 C-200.17823967 264.31230333 -196.80090752 259.81798627 -193.35717773 254.95068359 C-192.78547852 254.15082031 -192.2137793 253.35095703 -191.62475586 252.52685547 C-189.92718954 250.15026262 -188.23554965 247.76954182 -186.54467773 245.38818359 C-185.27276094 243.60513542 -183.9993777 241.82314323 -182.72583008 240.04125977 C-181.93263131 238.93114218 -181.1399959 237.82062186 -180.34790039 236.7097168 C-176.99341211 232.00659279 -173.61550565 227.32059311 -170.23217773 222.63818359 C-169.68722656 221.88384033 -169.14227539 221.12949707 -168.58081055 220.35229492 C-165.21076612 215.68908242 -161.83547252 211.02971486 -158.45605469 206.37329102 C-156.82582763 204.11876246 -155.20856484 201.85532508 -153.59155273 199.59130859 C-151.66365393 196.90104677 -149.68373603 194.27458052 -147.62280273 191.68505859 C-147.18419922 191.11311768 -146.7455957 190.54117676 -146.29370117 189.9519043 C-145.13657268 188.44533024 -143.95112832 186.96061934 -142.76342773 185.47802734 C-141.40494398 182.03392269 -141.5259395 181.61681586 -142.71630859 178.32324219 C-143.00315521 177.52456223 -143.29000183 176.72588226 -143.58554077 175.90299988 C-145.19250627 171.68960477 -146.86224384 167.50689765 -148.57983398 163.33740234 C-148.97029404 162.38283646 -149.36075409 161.42827057 -149.76304626 160.44477844 C-151.0417044 157.32062526 -152.32443841 154.19816303 -153.60717773 151.07568359 C-154.5104532 148.87072043 -155.41344372 146.66564051 -156.31616211 144.46044922 C-158.16442229 139.94664422 -160.0142473 135.43348574 -161.86547852 130.92089844 C-164.30232447 124.98039863 -166.73518484 119.03827809 -169.16577148 113.09521484 C-169.53066681 112.20300735 -169.89556213 111.31079987 -170.27151489 110.39155579 C-171.00028126 108.60958531 -171.72903099 106.82760803 -172.45776367 105.04562378 C-173.54890242 102.3778545 -174.64047181 99.71026183 -175.73217773 97.04272461 C-182.3515044 80.86793349 -188.95631277 64.68722599 -195.55834961 48.50537109 C-195.95194672 47.5413739 -196.34554382 46.57737671 -196.75106812 45.58416748 C-197.52612187 43.68329777 -198.29928813 41.78165724 -199.07046509 39.87921143 C-201.05681499 34.98704959 -203.08208753 30.11623771 -205.16918945 25.26611328 C-205.80460915 23.76985916 -205.80460915 23.76985916 -206.4528656 22.24337769 C-207.26068644 20.34386877 -208.08008993 18.44922882 -208.91297913 16.56057739 C-210.90874572 11.83430905 -212.30559939 8.48367987 -210.54467773 3.38818359 C-207.91503752 0.75854338 -206.01858015 1.13855892 -202.43836975 1.10601807 C-201.5822258 1.10849548 -200.72608185 1.1109729 -199.84399414 1.11352539 C-198.9430452 1.10841446 -198.04209625 1.10330353 -197.11384583 1.09803772 C-194.12457707 1.08409581 -191.13553772 1.08510212 -188.14624023 1.08740234 C-186.07359735 1.08351756 -184.00095526 1.07918334 -181.92831421 1.07441711 C-177.57872948 1.06694473 -173.2292259 1.06725327 -168.87963867 1.07250977 C-163.3018506 1.07830165 -157.72439487 1.06138502 -152.14666176 1.03816509 C-147.8641668 1.02344138 -143.58175208 1.02255427 -139.2992363 1.02567482 C-137.2427136 1.02516079 -135.1861865 1.01990774 -133.12968826 1.0098629 C-130.25428878 0.99754413 -127.37953926 1.00426315 -124.50415039 1.01586914 C-123.6520549 1.0082254 -122.79995941 1.00058167 -121.92204285 0.9927063 C-118.63180484 1.02210132 -116.18251771 1.09322197 -113.17451477 2.48423767 C-110.91308097 5.12600342 -109.73397339 8.01510778 -108.5078125 11.22363281 C-108.09470322 12.2609832 -108.09470322 12.2609832 -107.67324829 13.31929016 C-106.76591289 15.6060855 -105.87599805 17.89924625 -104.98608398 20.19287109 C-104.35463577 21.79453017 -103.72212667 23.39577137 -103.08860779 24.99661255 C-101.42099328 29.21904293 -99.768119 33.4470961 -98.11816406 37.67645264 C-96.45358717 41.93547421 -94.77480855 46.18888623 -93.09741211 50.44287109 C-89.81992751 58.76319375 -86.55365903 67.08778477 -83.31138992 75.42189789 C-82.5504531 77.37337226 -81.78445661 79.32280367 -81.01779175 81.27203369 C-80.55865387 82.44747742 -80.09951599 83.62292114 -79.62646484 84.83398438 C-79.22278183 85.86274689 -78.81909882 86.8915094 -78.40318298 87.95144653 C-77.54467773 90.38818359 -77.54467773 90.38818359 -77.54467773 92.38818359 C-74.26500591 89.309308 -71.66723254 85.93942859 -69.10717773 82.26318359 C-68.21971221 81.00497923 -67.33166234 79.74718688 -66.44311523 78.48974609 C-65.97357422 77.82362305 -65.5040332 77.1575 -65.02026367 76.47119141 C-62.44940238 72.84204043 -59.83952208 69.24116603 -57.23217773 65.63818359 C-56.68577637 64.88206787 -56.139375 64.12595215 -55.57641602 63.34692383 C-52.80267312 59.50863056 -50.02628332 55.67226719 -47.24780273 51.83740234 C-41.9713396 44.55007037 -36.72230796 37.24613824 -31.54467773 29.88818359 C-30.06764323 27.79352044 -28.58976028 25.69946153 -27.11108398 23.60595703 C-26.01389116 22.05251258 -24.9176139 20.49842124 -23.82202148 18.94384766 C-22.06941271 16.46226918 -20.30806994 13.98710743 -18.54467773 11.51318359 C-18.00456055 10.74554688 -17.46444336 9.97791016 -16.90795898 9.18701172 C-16.39620117 8.47222656 -15.88444336 7.75744141 -15.35717773 7.02099609 C-14.90987305 6.39080566 -14.46256836 5.76061523 -14.00170898 5.11132812 C-9.87361567 0.22927675 -6.18793046 -0.04639303 0 0 Z " fill="#000000" transform="translate(2045.544677734375,158.61181640625)"/>
<path d="M0 0 C1.32019135 -0.01029488 1.32019135 -0.01029488 2.66705322 -0.02079773 C5.57580711 -0.03909586 8.48402318 -0.03522388 11.39282227 -0.02954102 C13.41537146 -0.03410144 15.4379191 -0.03940659 17.46046448 -0.04542542 C21.69978123 -0.0543625 25.93890967 -0.05192664 30.17822266 -0.04199219 C35.61024038 -0.03050306 41.041608 -0.05071028 46.47354031 -0.07990932 C50.65058012 -0.09825794 54.82746377 -0.0979815 59.00453377 -0.0922718 C61.00720189 -0.09211842 63.00988048 -0.09817693 65.0125103 -0.11056328 C67.81344215 -0.12544569 70.61316831 -0.1148164 73.4140625 -0.09765625 C74.65404747 -0.1121582 74.65404747 -0.1121582 75.91908264 -0.12695312 C79.839903 -0.07666771 81.81262212 0.11726719 85.21392822 2.2419281 C87.78155915 4.93973026 89.23494751 7.811357 90.69750977 11.18530273 C91.1539814 12.1944574 91.1539814 12.1944574 91.61967468 13.22399902 C92.62057485 15.44522279 93.60232741 17.67437318 94.58422852 19.90405273 C95.2894585 21.4787871 95.99586009 23.05299725 96.70336914 24.62670898 C98.54596857 28.73443255 100.37229521 32.84916244 102.19317627 36.96655273 C103.89501908 40.81267319 105.60537383 44.65500268 107.31469727 48.49780273 C109.3003324 52.96398548 111.2841509 57.4309535 113.26245117 61.90039062 C117.92002624 72.41545866 122.66396375 82.88861521 127.45922852 93.34155273 C132.73836129 104.84983105 137.97002767 116.37643449 143.13452148 127.93676758 C146.31859256 135.05905731 149.52033935 142.1729892 152.74047852 149.27905273 C153.13310883 150.14550415 153.52573914 151.01195557 153.93026733 151.90466309 C155.55562613 155.49102088 157.18115877 159.07729986 158.80670166 162.66357422 C165.22375212 176.82591575 171.57363729 191.01675799 177.84521484 205.24414062 C179.32761315 208.60463147 180.82904956 211.95619071 182.33709717 215.30523682 C183.35256206 217.58557322 184.33984994 219.87726534 185.32885742 222.16918945 C186.02379071 223.73614348 186.71957027 225.30272251 187.41625977 226.86889648 C187.72770432 227.60797745 188.03914886 228.34705841 188.36003113 229.10853577 C189.35495228 231.42105417 189.35495228 231.42105417 191.27172852 234.40405273 C193.88301845 235.49449501 193.88301845 235.49449501 196.27172852 235.40405273 C196.53212921 234.5826757 196.53212921 234.5826757 196.79779053 233.7447052 C198.58602104 228.227981 200.65710892 222.91666858 202.97485352 217.60327148 C203.32907883 216.78234009 203.68330414 215.96140869 204.04826355 215.11560059 C204.80777143 213.3558304 205.56881403 211.59672192 206.33126831 209.83822632 C208.37884887 205.11397312 210.41320628 200.38403512 212.44750977 195.65405273 C212.85932999 194.69693893 213.27115021 193.73982513 213.69544983 192.75370789 C217.430942 184.05941341 221.08523911 175.3328 224.70922852 166.59155273 C230.2666764 153.19663017 235.87605853 139.82454229 241.52172852 126.46655273 C241.92027039 125.52341217 242.31881226 124.58027161 242.72943115 123.60855103 C245.16956058 117.83443021 247.6107976 112.06077822 250.0524292 106.28729248 C253.25252869 98.72011524 256.45151388 91.15246783 259.6489563 83.58416748 C260.4365628 81.72018504 261.22438285 79.85629282 262.01242065 77.99249268 C266.45441865 67.48605129 270.87522121 56.97129452 275.25610352 46.43920898 C276.07436324 44.47452039 276.892641 42.5098393 277.7109375 40.54516602 C279.24912285 36.85150418 280.78171871 33.15559311 282.31103516 29.45825195 C292.31743147 5.35834978 292.31743147 5.35834978 296.27172852 1.40405273 C299.26860776 1.19989848 302.17345465 1.12091872 305.171875 1.12939453 C306.09393738 1.1242836 307.01599976 1.11917267 307.96600342 1.11390686 C311.0250084 1.09996556 314.08378922 1.10097105 317.14282227 1.10327148 C319.26270126 1.09938702 321.38257947 1.09505287 323.50245667 1.09028625 C327.95039388 1.08281425 332.39825175 1.08312239 336.84619141 1.08837891 C342.55411129 1.09417447 348.26170679 1.07724505 353.96957302 1.05403423 C358.34896249 1.03932232 362.72827338 1.03842173 367.10768318 1.04154396 C369.21248072 1.04102946 371.31728252 1.03576764 373.4220562 1.02573204 C376.36231608 1.01343437 379.30193829 1.02011921 382.2421875 1.03173828 C383.55377586 1.02027267 383.55377586 1.02027267 384.89186096 1.00857544 C390.840235 1.06069246 390.840235 1.06069246 392.98953342 2.77099323 C394.27172852 4.40405273 394.27172852 4.40405273 394.74072266 6.90722656 C394.03926421 12.13730953 391.91367801 16.56090935 389.76782227 21.35327148 C389.29837189 22.42533844 388.82892151 23.4974054 388.34524536 24.60195923 C386.80977229 28.10292102 385.25939049 31.5970735 383.70922852 35.09155273 C382.63825692 37.52811772 381.5682632 39.96508155 380.5 42.40283203 C378.38208138 47.23284114 376.25982504 52.0609024 374.1340332 56.88745117 C370.64939013 64.8087524 367.22973446 72.75673822 363.83422852 80.71655273 C363.2594444 82.06078108 362.68449028 83.40493674 362.109375 84.74902344 C360.87527628 87.63360628 359.64183597 90.51846924 358.40893555 93.40356445 C353.86735709 104.0305065 349.32095123 114.65538099 344.77172852 125.27905273 C344.00351776 127.07323135 344.00351776 127.07323135 343.2197876 128.90365601 C335.29800644 147.39985657 327.30683704 165.86508541 319.27929688 184.31561279 C311.54282776 202.10335588 303.91569367 219.93568184 296.33395386 237.78985596 C288.75461717 255.63379292 281.07215343 273.43062417 273.33422852 291.20629883 C266.06706068 307.90548036 258.89128236 324.64144375 251.77172852 341.40405273 C244.33962984 358.89226296 236.87784824 376.36721984 229.3347168 393.80786133 C228.35086967 396.08386824 227.36855595 398.36053875 226.38793945 400.63793945 C217.71854212 420.76311096 217.71854212 420.76311096 212.88110352 430.49389648 C212.5761647 431.10872894 212.27122589 431.7235614 211.95704651 432.35702515 C196.12912993 463.49574339 166.11591815 488.23718972 133.12719727 499.16967773 C119.71175883 503.37790724 107.26152741 505.71513342 93.14282227 505.70483398 C91.83136734 505.70911911 90.51991241 505.71340424 89.16871643 505.71781921 C86.41810001 505.72521458 83.6676122 505.72503501 80.91699219 505.71972656 C77.38950878 505.71387633 73.86254102 505.7310266 70.33514309 505.75407124 C66.95851337 505.77228553 63.58200095 505.768626 60.20532227 505.76733398 C58.93772568 505.77654373 57.67012909 505.78575348 56.36412048 505.79524231 C54.61573631 505.78589912 54.61573631 505.78589912 52.83203125 505.77636719 C51.80375717 505.77699661 50.77548309 505.77762604 49.71604919 505.77827454 C48.90942337 505.65478134 48.10279755 505.53128815 47.27172852 505.40405273 C44.86166276 501.78895409 44.97588529 499.14437507 44.98120117 494.96679688 C44.97448395 494.21200546 44.96776672 493.45721405 44.96084595 492.67955017 C44.94183707 490.18270295 44.93794045 487.68612407 44.93579102 485.18920898 C44.92936552 483.4542988 44.92263735 481.7193897 44.9156189 479.98448181 C44.90363922 476.34705085 44.89993882 472.70971492 44.90112305 469.07226562 C44.90132638 464.41024381 44.87401326 459.74883065 44.83957863 455.08695316 C44.81734737 451.50358783 44.81328433 447.92036991 44.8143425 444.33694267 C44.81198126 442.61812681 44.80312838 440.8993072 44.78767776 439.18055916 C44.76809162 436.77683931 44.77382557 434.37444408 44.78588867 431.97070312 C44.77464966 431.26043976 44.76341064 430.55017639 44.75183105 429.81838989 C44.7941754 426.49974731 45.07407218 424.67654019 47.0436554 421.96128845 C49.45539934 420.27568228 50.50919709 419.90853397 53.40673828 419.92163086 C54.21180313 419.914823 55.01686798 419.90801514 55.84632874 419.90100098 C56.70987473 419.91232056 57.57342072 419.92364014 58.46313477 419.93530273 C59.8138633 419.92472839 59.8138633 419.92472839 61.19187927 419.91394043 C65.03383266 419.88454551 68.87527629 419.90096694 72.71728516 419.91333008 C88.6256712 419.92694211 99.40467282 418.40929776 112.27172852 408.40405273 C112.87500977 407.97737305 113.47829102 407.55069336 114.09985352 407.11108398 C126.22049173 397.90732833 135.64335056 380.1332097 138.27172852 365.40405273 C138.12001964 359.22572029 136.67001591 354.07024217 134.13110352 348.48608398 C133.81310791 347.75999939 133.4951123 347.03391479 133.16748047 346.28582764 C132.13019621 343.92423201 131.07602822 341.57059458 130.02172852 339.21655273 C129.28512355 337.54710195 128.54978929 335.87708997 127.81567383 334.20654297 C126.33396104 330.8382336 124.84642085 327.47260234 123.35375977 324.10913086 C120.53332867 317.74680777 117.77813301 311.35685021 115.02172852 304.96655273 C113.97551693 302.55089752 112.9287883 300.13547483 111.88110352 297.72045898 C111.60659363 297.08759476 111.33208374 296.45473053 111.04925537 295.8026886 C106.35694877 284.98786576 101.65285446 274.17815789 96.9510498 263.36746216 C91.88373879 251.71624517 86.81982169 240.06361022 81.77172852 228.40405273 C76.49243806 216.21116188 71.19606545 204.02574251 65.89672852 191.84155273 C58.0272763 173.74815167 50.16906225 155.64989895 42.31628418 137.54925537 C35.85635837 122.6595305 29.39080139 107.77227303 22.91748047 92.8883667 C13.21095333 70.57034746 13.21095333 70.57034746 8.56079102 59.86108398 C8.27849136 59.21098358 7.99619171 58.56088318 7.70533752 57.89108276 C5.88452104 53.69603529 4.07140366 49.49771085 2.26000977 45.29858398 C0.42499592 41.04866015 -1.43056336 36.80887613 -3.30960083 32.57830811 C-4.45452538 29.99607333 -5.5895203 27.40953899 -6.72314453 24.82232666 C-7.51468784 23.02575499 -8.31950394 21.23504927 -9.12475586 19.44458008 C-13.78907861 8.76581938 -13.78907861 8.76581938 -12.72827148 3.40405273 C-9.22331721 -0.49075159 -4.8724566 -0.02646867 0 0 Z " fill="#000000" transform="translate(12.728271484375,158.595947265625)"/>
<path d="M0 0 C0.94230469 0.69996094 1.88460938 1.39992187 2.85546875 2.12109375 C21.89914599 16.90083115 36.84511211 35.33567089 49 56 C49.35835937 56.60537598 49.71671875 57.21075195 50.0859375 57.83447266 C62.00448938 78.23827176 69.29768918 101.55902475 72 125 C72.11085938 125.92039062 72.22171875 126.84078125 72.3359375 127.7890625 C73.60527013 140.24224478 73.52192172 152.92707154 72.25 165.375 C72.1883667 166.07004639 72.1267334 166.76509277 72.06323242 167.48120117 C71.51734667 172.07786531 70.23324496 174.70505189 67 178 C63.87504775 179.56247613 60.54848663 179.14798462 57.1177063 179.14717102 C56.29394214 179.15084771 55.47017797 179.1545244 54.62145126 179.1583125 C51.84544698 179.16937569 49.06948009 179.1731976 46.29345703 179.17700195 C44.3095284 179.18326452 42.32560096 179.18991113 40.3416748 179.19691467 C34.94087454 179.21434141 29.54008315 179.22488057 24.13926172 179.2331202 C20.76791764 179.23826583 17.39657634 179.24434169 14.02523422 179.25063133 C3.48533896 179.26968636 -7.05454928 179.28391796 -17.59445846 179.2922433 C-29.77676956 179.30202392 -41.95889936 179.3283637 -54.14114654 179.36874419 C-63.54754255 179.39885806 -72.95388645 179.4137076 -82.36032975 179.41702431 C-87.98317951 179.41937983 -93.60583565 179.42840549 -99.22863388 179.45348549 C-104.51620559 179.47668913 -109.80345512 179.48103059 -115.09106445 179.47072411 C-117.03414097 179.47022678 -118.97723293 179.47660468 -120.92026138 179.49028015 C-123.56847797 179.50787943 -126.21552323 179.50095254 -128.86373901 179.48774719 C-129.63669496 179.49871644 -130.40965091 179.50968568 -131.20602977 179.52098733 C-134.70875208 179.4786767 -136.64190482 179.26980631 -139.47719097 177.133564 C-141.43919208 174.38466059 -141.5011473 172.72329017 -141.50170898 169.36108398 C-141.51108994 168.22988632 -141.52047089 167.09868866 -141.53013611 165.93321228 C-141.51328514 164.10808861 -141.51328514 164.10808861 -141.49609375 162.24609375 C-141.49754898 160.993694 -141.49900421 159.74129425 -141.50050354 158.45094299 C-141.49884337 155.80340693 -141.48935408 153.15730736 -141.46655273 150.51000977 C-141.43813821 147.11798795 -141.44091453 143.72686558 -141.45364285 140.33477688 C-141.46227039 137.09682444 -141.44715627 133.85901798 -141.43359375 130.62109375 C-141.43652939 129.4023204 -141.43946503 128.18354706 -141.44248962 126.92784119 C-141.42980545 125.79979568 -141.41712128 124.67175018 -141.40405273 123.50952148 C-141.39864975 122.51564926 -141.39324677 121.52177704 -141.38768005 120.49778748 C-140.92493063 117.51633486 -140.35053493 116.82387449 -138 115 C-135.88171101 114.61523914 -135.88171101 114.61523914 -133.38728333 114.60127258 C-132.44077408 114.58873444 -131.49426483 114.57619629 -130.51907349 114.5632782 C-129.4825766 114.56471329 -128.44607971 114.56614838 -127.37817383 114.56762695 C-126.28533585 114.5574353 -125.19249786 114.54724365 -124.06654358 114.53674316 C-120.44665477 114.50649759 -116.82703007 114.49732937 -113.20703125 114.48828125 C-110.70024223 114.47144318 -108.1934617 114.45329414 -105.68669128 114.43388367 C-99.7581826 114.39115097 -93.82970131 114.36166208 -87.90109223 114.33856028 C-80.48930844 114.3088699 -73.07768769 114.25866904 -65.66601562 114.20898438 C-52.44407483 114.12283681 -39.22210527 114.05497243 -26 114 C-24.8844288 112.15789756 -24.8844288 112.15789756 -24 110 C-24.86638726 107.02870926 -24.86638726 107.02870926 -26.5 103.9375 C-27.07105469 102.78378906 -27.64210938 101.63007813 -28.23046875 100.44140625 C-28.81441406 99.30574219 -29.39835937 98.17007813 -30 97 C-30.70576172 95.55947266 -30.70576172 95.55947266 -31.42578125 94.08984375 C-40.03447021 77.23621325 -53.81950711 64.37064887 -70 55 C-70.84175781 54.50757813 -71.68351563 54.01515625 -72.55078125 53.5078125 C-95.02723558 41.34408428 -123.74278109 39.28068474 -148.06591797 46.40576172 C-162.76674682 50.92252736 -175.34655672 58.00278239 -187 68 C-187.97195313 68.77085937 -188.94390625 69.54171875 -189.9453125 70.3359375 C-193.19459155 73.04761417 -195.78878311 76.09973291 -198.375 79.4375 C-198.84832764 80.04730713 -199.32165527 80.65711426 -199.80932617 81.28540039 C-217.78989383 104.96067546 -225.09506352 133.1810663 -221.4921875 162.640625 C-217.78340936 188.01423348 -205.47372533 212.27569752 -185.10546875 228.2734375 C-169.28898362 239.70187188 -151.4288636 247.44122164 -132 250 C-131.16855469 250.11085938 -130.33710937 250.22171875 -129.48046875 250.3359375 C-100.24889683 253.57902044 -69.03421966 248.74151949 -45.39453125 230.2578125 C-38.53342321 224.66253424 -31.72151841 218.62226809 -26.16015625 211.71484375 C-24 210 -24 210 -21.140625 209.984375 C-17.48663958 211.16601208 -14.76408847 212.94857403 -11.75 215.25 C-10.50927122 216.16687867 -9.26837768 217.08353441 -8.02734375 218 C-7.37362793 218.48855469 -6.71991211 218.97710937 -6.04638672 219.48046875 C-3.23784653 221.56593214 -0.39519321 223.60239528 2.44702148 225.64160156 C10.52788798 231.44270742 18.54684942 237.32693553 26.54370117 243.24316406 C27.28595947 243.79198242 28.02821777 244.34080078 28.79296875 244.90625 C29.4998584 245.43347656 30.20674805 245.96070313 30.93505859 246.50390625 C32.28824123 247.48431571 33.66627385 248.43149763 35.06884766 249.33984375 C37.86086575 251.1637823 39.75007868 252.44347416 41.13671875 255.53125 C40.95463642 258.81913666 39.95007431 260.00829662 37.8125 262.5 C37.07386719 263.36496094 36.33523438 264.22992188 35.57421875 265.12109375 C34.72472656 266.07113281 33.87523437 267.02117187 33 268 C32.53803223 268.52223145 32.07606445 269.04446289 31.60009766 269.58251953 C-3.76167119 309.4282698 -52.81211443 330.37117978 -105.55859375 333.72265625 C-156.71433563 336.48759274 -208.21930504 321.1835913 -247 287 C-248.45792969 285.72382812 -248.45792969 285.72382812 -249.9453125 284.421875 C-286.98139223 251.52005533 -309.00870131 205.41874703 -312 156 C-313.62160617 122.48197953 -305.98018331 89.45980004 -290 60 C-289.07767578 58.24816406 -289.07767578 58.24816406 -288.13671875 56.4609375 C-280.34469727 42.16749851 -270.27369149 29.68275141 -259 18 C-258.16339844 17.10023438 -257.32679688 16.20046875 -256.46484375 15.2734375 C-228.73673692 -13.75115698 -190.15322756 -31.29825362 -151 -38 C-150.3385498 -38.11714355 -149.67709961 -38.23428711 -148.99560547 -38.35498047 C-96.82574944 -47.20557616 -41.65527455 -31.88154188 0 0 Z " fill="#000000" transform="translate(722,193)"/>
<path d="M0 0 C0.88319412 -0.00540298 1.76638824 -0.01080597 2.67634583 -0.01637268 C5.60032502 -0.02889603 8.52332649 -0.01234507 11.44726562 0.00561523 C13.47603406 0.00546033 15.50480279 0.00397278 17.53356934 0.00120544 C21.78732368 -0.00018017 26.04074151 0.01240669 30.29443359 0.03515625 C35.75238773 0.06354123 41.2097825 0.06080566 46.66777802 0.04806614 C50.85761306 0.04111772 55.04731836 0.04888868 59.23713684 0.06132317 C61.24981692 0.06584581 63.26251089 0.0661674 65.27519226 0.06225777 C68.08609664 0.05935376 70.89622483 0.07581363 73.70703125 0.09765625 C74.96015862 0.09090378 74.96015862 0.09090378 76.23860168 0.08401489 C81.82181777 0.15625709 81.82181777 0.15625709 84.0673719 1.61522657 C85.98395547 4.42642187 85.72785983 6.69172291 85.72710323 10.07310772 C85.73105475 10.74712518 85.73500627 11.42114265 85.73907754 12.11558488 C85.74873914 14.39071589 85.73690701 16.66523838 85.72532654 18.94035339 C85.72789951 20.58146215 85.73179898 22.22256928 85.73691612 23.86367208 C85.74722708 28.38670146 85.73886177 32.90953686 85.72761929 37.43255699 C85.71879109 42.30607609 85.72726166 47.17956699 85.73382568 52.05308533 C85.74299767 60.50481622 85.74164125 68.95649286 85.73364067 77.40822411 C85.72242153 89.64552481 85.73144003 101.88274804 85.74620248 114.120042 C85.76999851 133.99587953 85.78334303 153.87170752 85.78735352 173.74755859 C85.78759838 174.93791103 85.78784325 176.12826347 85.78809554 177.35468719 C85.79063883 190.62083738 85.79120975 203.88698684 85.79016113 217.15313721 C85.78982815 221.95576985 85.78954273 226.7584025 85.78930664 231.56103516 C85.78924385 232.74599877 85.78918107 233.93096238 85.78911638 235.15183397 C85.78851078 254.93628408 85.80342732 274.72069022 85.8301397 294.50512201 C85.84592347 306.70388903 85.84822502 318.90251386 85.83300567 331.10128234 C85.82351682 339.47160104 85.82833292 347.84183432 85.8442195 356.21214303 C85.85288795 361.0363855 85.85511691 365.86040071 85.83969307 370.68463135 C85.82565481 375.11108736 85.83034663 379.53713409 85.84921408 383.96356849 C85.85279372 385.55527337 85.84977633 387.14701157 85.83906441 388.73868444 C85.76099859 401.18884413 86.13228503 416.17733573 94.80273438 425.96655273 C95.31449219 426.4731543 95.82625 426.97975586 96.35351562 427.50170898 C97.24039062 428.40920898 98.12726563 429.31670898 99.04101562 430.25170898 C106.48954675 435.92405192 115.54476564 437.05944656 124.6027832 437.73095703 C129.84977876 438.17749702 129.84977876 438.17749702 132.05482483 439.59669495 C134.05162891 442.52575229 133.74291966 445.05837017 133.75756836 448.57177734 C133.76443161 449.28755447 133.77129486 450.0033316 133.77836609 450.74079895 C133.79667387 453.10791843 133.79279105 455.47437761 133.78710938 457.84155273 C133.79166947 459.486783 133.79697452 461.13201136 133.80299377 462.77723694 C133.81193279 466.22640721 133.80949308 469.67534606 133.79956055 473.12451172 C133.7880728 477.54444728 133.80827473 481.96358371 133.83747768 486.38341427 C133.85582579 489.78151016 133.85555 493.17941408 133.84984016 496.57754707 C133.84968676 498.2070382 133.85574681 499.83654218 133.86813164 501.46598625 C133.88301348 503.74524895 133.87238707 506.02302973 133.85522461 508.30224609 C133.85505844 509.59891708 133.85489227 510.89558807 133.85472107 512.23155212 C133.27043497 516.04377565 132.36417658 517.18288413 129.35351562 519.50170898 C111.69650759 528.330213 71.77248651 518.54864018 53.70117188 512.63354492 C33.30458681 505.31467897 15.91838651 492.69319279 5.35351562 473.50170898 C4.84433594 472.62643555 4.33515625 471.75116211 3.81054688 470.84936523 C-13.37255913 439.35436632 -11.95611166 400.99297998 -11.92259276 366.24272597 C-11.92009721 361.38342249 -11.92917353 356.52413722 -11.93663025 351.6648407 C-11.94929488 342.1822954 -11.95118189 332.69977852 -11.94882999 323.21722618 C-11.94703989 315.51376352 -11.94881117 307.81030941 -11.95305443 300.10684776 C-11.95364962 299.00652515 -11.95424481 297.90620253 -11.95485803 296.77253681 C-11.95606985 294.53682902 -11.95728399 292.30112123 -11.95850041 290.06541344 C-11.96934096 269.16964166 -11.96722812 248.27388608 -11.96111556 227.37811341 C-11.95593118 208.25427239 -11.96724802 189.13048207 -11.98621378 170.00665108 C-12.00556446 150.34368304 -12.01385422 130.68073904 -12.01009053 111.01776141 C-12.00817662 99.98835907 -12.010686 88.95900005 -12.02480507 77.92960548 C-12.03668334 68.55682527 -12.03816268 59.18411517 -12.0260149 49.81133405 C-12.02010549 45.02897876 -12.01908409 40.24675197 -12.0310173 35.46440506 C-12.04180347 31.09124777 -12.03886037 26.71832741 -12.02475562 22.34518155 C-12.02208889 20.75967121 -12.02453656 19.17414271 -12.03249148 17.58865009 C-12.04252516 15.44059932 -12.03423903 13.29338401 -12.02121449 11.14536762 C-12.0212695 9.95032464 -12.02132452 8.75528166 -12.0213812 7.52402526 C-11.0795599 -0.06868198 -6.66930746 -0.07718129 0 0 Z " fill="#000000" transform="translate(1070.646484375,0.498291015625)"/>
<path d="M0 0 C0.88319412 -0.00540298 1.76638824 -0.01080597 2.67634583 -0.01637268 C5.60032502 -0.02889603 8.52332649 -0.01234507 11.44726562 0.00561523 C13.47603406 0.00546033 15.50480279 0.00397278 17.53356934 0.00120544 C21.78732368 -0.00018017 26.04074151 0.01240669 30.29443359 0.03515625 C35.75238773 0.06354123 41.2097825 0.06080566 46.66777802 0.04806614 C50.85761306 0.04111772 55.04731836 0.04888868 59.23713684 0.06132317 C61.24981692 0.06584581 63.26251089 0.0661674 65.27519226 0.06225777 C68.08609664 0.05935376 70.89622483 0.07581363 73.70703125 0.09765625 C74.96015862 0.09090378 74.96015862 0.09090378 76.23860168 0.08401489 C81.82181777 0.15625709 81.82181777 0.15625709 84.0673719 1.61522657 C85.98395547 4.42642187 85.72785983 6.69172291 85.72710323 10.07310772 C85.73105475 10.74712518 85.73500627 11.42114265 85.73907754 12.11558488 C85.74873914 14.39071589 85.73690701 16.66523838 85.72532654 18.94035339 C85.72789951 20.58146215 85.73179898 22.22256928 85.73691612 23.86367208 C85.74722708 28.38670146 85.73886177 32.90953686 85.72761929 37.43255699 C85.71879109 42.30607609 85.72726166 47.17956699 85.73382568 52.05308533 C85.74299767 60.50481622 85.74164125 68.95649286 85.73364067 77.40822411 C85.72242153 89.64552481 85.73144003 101.88274804 85.74620248 114.120042 C85.76999851 133.99587953 85.78334303 153.87170752 85.78735352 173.74755859 C85.78759838 174.93791103 85.78784325 176.12826347 85.78809554 177.35468719 C85.79063883 190.62083738 85.79120975 203.88698684 85.79016113 217.15313721 C85.78982815 221.95576985 85.78954273 226.7584025 85.78930664 231.56103516 C85.78924385 232.74599877 85.78918107 233.93096238 85.78911638 235.15183397 C85.78851078 254.93628408 85.80342732 274.72069022 85.8301397 294.50512201 C85.84592347 306.70388903 85.84822502 318.90251386 85.83300567 331.10128234 C85.82351682 339.47160104 85.82833292 347.84183432 85.8442195 356.21214303 C85.85288795 361.0363855 85.85511691 365.86040071 85.83969307 370.68463135 C85.82565481 375.11108736 85.83034663 379.53713409 85.84921408 383.96356849 C85.85279372 385.55527337 85.84977633 387.14701157 85.83906441 388.73868444 C85.76099859 401.18884413 86.13228503 416.17733573 94.80273438 425.96655273 C95.31449219 426.4731543 95.82625 426.97975586 96.35351562 427.50170898 C97.24039063 428.40920898 98.12726563 429.31670898 99.04101562 430.25170898 C106.48954675 435.92405192 115.54476564 437.05944656 124.6027832 437.73095703 C129.84977876 438.17749702 129.84977876 438.17749702 132.05482483 439.59669495 C134.05162891 442.52575229 133.74291966 445.05837017 133.75756836 448.57177734 C133.76443161 449.28755447 133.77129486 450.0033316 133.77836609 450.74079895 C133.79667387 453.10791843 133.79279105 455.47437761 133.78710938 457.84155273 C133.79166947 459.486783 133.79697452 461.13201136 133.80299377 462.77723694 C133.81193279 466.22640721 133.80949308 469.67534606 133.79956055 473.12451172 C133.7880728 477.54444728 133.80827473 481.96358371 133.83747768 486.38341427 C133.85582579 489.78151016 133.85555 493.17941408 133.84984016 496.57754707 C133.84968676 498.2070382 133.85574681 499.83654218 133.86813164 501.46598625 C133.88301348 503.74524895 133.87238707 506.02302973 133.85522461 508.30224609 C133.85505844 509.59891708 133.85489227 510.89558807 133.85472107 512.23155212 C133.27043497 516.04377565 132.36417658 517.18288413 129.35351562 519.50170898 C111.69650759 528.330213 71.77248651 518.54864018 53.70117188 512.63354492 C33.30458681 505.31467897 15.91838651 492.69319279 5.35351562 473.50170898 C4.84433594 472.62643555 4.33515625 471.75116211 3.81054688 470.84936523 C-13.37255913 439.35436632 -11.95611166 400.99297998 -11.92259276 366.24272597 C-11.92009721 361.38342249 -11.92917353 356.52413722 -11.93663025 351.6648407 C-11.94929488 342.1822954 -11.95118189 332.69977852 -11.94882999 323.21722618 C-11.94703989 315.51376352 -11.94881117 307.81030941 -11.95305443 300.10684776 C-11.95364962 299.00652515 -11.95424481 297.90620253 -11.95485803 296.77253681 C-11.95606985 294.53682902 -11.95728399 292.30112123 -11.95850041 290.06541344 C-11.96934096 269.16964166 -11.96722812 248.27388608 -11.96111556 227.37811341 C-11.95593118 208.25427239 -11.96724802 189.13048207 -11.98621378 170.00665108 C-12.00556446 150.34368304 -12.01385422 130.68073904 -12.01009053 111.01776141 C-12.00817662 99.98835907 -12.010686 88.95900005 -12.02480507 77.92960548 C-12.03668334 68.55682527 -12.03816268 59.18411517 -12.0260149 49.81133405 C-12.02010549 45.02897876 -12.01908409 40.24675197 -12.0310173 35.46440506 C-12.04180347 31.09124777 -12.03886037 26.71832741 -12.02475562 22.34518155 C-12.02208889 20.75967121 -12.02453656 19.17414271 -12.03249148 17.58865009 C-12.04252516 15.44059932 -12.03423903 13.29338401 -12.02121449 11.14536762 C-12.0212695 9.95032464 -12.02132452 8.75528166 -12.0213812 7.52402526 C-11.0795599 -0.06868198 -6.66930746 -0.07718129 0 0 Z " fill="#000000" transform="translate(870.646484375,0.498291015625)"/>
<path d="M0 0 C52.3063692 -0.89009837 101.43608111 18.45516302 139.77734375 53.80859375 C140.33212402 54.31865967 140.8869043 54.82872559 141.45849609 55.35424805 C163.9796435 76.50709892 188.65204934 111.74615021 191.6484375 143.37890625 C191.33984375 146.12109375 191.33984375 146.12109375 190.32455444 147.76821899 C187.20899747 149.89193325 183.91752178 149.53776921 180.27587891 149.50927734 C179.04368874 149.51716278 179.04368874 149.51716278 177.78660583 149.52520752 C175.06717999 149.53842639 172.34833821 149.52966126 169.62890625 149.51953125 C167.73944995 149.52155183 165.8499944 149.52446314 163.96054077 149.52822876 C159.99770697 149.53265499 156.03507588 149.52621289 152.07226562 149.51220703 C146.99565753 149.49513836 141.91952605 149.50493973 136.84293556 149.52292442 C132.93954897 149.53377414 129.036275 149.53031005 125.13288498 149.52254105 C123.26140664 149.52054111 121.38991805 149.52299105 119.51845169 149.52997971 C116.89955907 149.5376111 114.28143328 149.52596546 111.66259766 149.50927734 C110.50441277 149.51838638 110.50441277 149.51838638 109.3228302 149.52767944 C104.81864733 149.47459203 101.93428597 148.88449594 98.33984375 146.12109375 C97.12060547 144.44213867 97.12060547 144.44213867 96.26953125 142.6015625 C95.93614746 141.91562012 95.60276367 141.22967773 95.25927734 140.52294922 C94.91461426 139.79221191 94.56995117 139.06147461 94.21484375 138.30859375 C89.89141553 129.6598889 84.64396241 122.42263825 78.33984375 115.12109375 C77.46779297 114.09628906 77.46779297 114.09628906 76.578125 113.05078125 C60.06525756 95.1653077 34.06538854 84.88075577 10.1171875 83.8671875 C-20.72259666 83.01579038 -47.40118328 93.82860098 -69.91015625 114.93359375 C-77.89799167 123.31483434 -84.01266759 133.13085933 -89.08984375 143.4765625 C-91.128577 146.90995157 -92.91275093 148.65534152 -96.80099487 149.69171143 C-100.38830122 150.2304449 -103.90746599 150.23147618 -107.52392578 150.19042969 C-108.30012268 150.18564102 -109.07631958 150.18085236 -109.8760376 150.17591858 C-112.43176661 150.15828949 -114.98732326 150.13253427 -117.54296875 150.10546875 C-119.32225511 150.08876992 -121.10154182 150.07210785 -122.88082886 150.05548096 C-126.60468935 150.01906182 -130.32846507 149.97783949 -134.05224609 149.93408203 C-138.82834924 149.87896531 -143.60440283 149.84250401 -148.38070869 149.81045151 C-152.05249292 149.78262577 -155.72404296 149.74157579 -159.39565659 149.69684601 C-161.15709689 149.67763197 -162.91859801 149.6633456 -164.68011856 149.6540451 C-167.13886447 149.63975242 -169.5966902 149.60687362 -172.05517578 149.56933594 C-173.14930283 149.569132 -173.14930283 149.569132 -174.26553345 149.56892395 C-177.21166903 149.50743911 -179.1853339 149.46319562 -181.61764526 147.71075439 C-183.46536091 144.89328687 -182.79380813 142.50589329 -182.34375 139.28125 C-176.6057248 112.7551792 -161.39643718 87.34045401 -143.66015625 67.12109375 C-142.90992188 66.26128906 -142.1596875 65.40148437 -141.38671875 64.515625 C-139.17492942 62.02075683 -136.9300745 59.56309966 -134.66015625 57.12109375 C-134.04914063 56.4559375 -133.438125 55.79078125 -132.80859375 55.10546875 C-98.83744432 19.54418041 -48.25249671 1.59640064 0 0 Z " fill="#000000" transform="translate(1427.66015625,144.87890625)"/>
<path d="M0 0 C1.49996961 -0.02975877 3.00064147 -0.03165566 4.5007782 -0.01205444 C5.32063202 -0.02081604 6.14048584 -0.02957764 6.98518372 -0.03860474 C9.70014625 -0.06064138 12.41348412 -0.04602763 15.12846375 -0.02914429 C17.01552646 -0.03251219 18.90258705 -0.03736459 20.78964233 -0.04364014 C24.74841423 -0.05101803 28.70662255 -0.04028019 32.66532898 -0.01693726 C37.73316456 0.01149266 42.79967289 -0.00481073 47.8674593 -0.03479958 C51.76666191 -0.05289786 55.66555181 -0.04710193 59.56476402 -0.03416061 C61.43262578 -0.03083055 63.30051615 -0.03489963 65.1683445 -0.04655838 C67.78512407 -0.05930243 70.39978112 -0.03983955 73.0164032 -0.01205444 C74.16919518 -0.02723618 74.16919518 -0.02723618 75.34527588 -0.04272461 C81.18180486 0.07170752 83.52816063 1.60475736 87.4526825 5.63491821 C88.83383458 7.95713584 90.00600563 10.1431233 91.1401825 12.57241821 C102.54002142 35.25180329 123.41482768 52.73272793 147.38237 61.04116821 C174.17821422 69.76959829 201.94998017 67.78500124 227.4004364 55.68276978 C247.61055264 45.3637335 263.09517683 28.93794488 272.72904968 8.46987915 C274.72508797 4.37721834 276.3259633 2.53240095 280.4526825 0.63491821 C283.27303112 0.35496545 285.8672229 0.23438047 288.68363953 0.26260376 C289.49885071 0.25895309 290.31406189 0.25530243 291.15397644 0.25154114 C293.83969667 0.24345666 296.52480969 0.25702576 299.210495 0.27163696 C301.07946268 0.27215572 302.94843092 0.27163741 304.81739807 0.27012634 C308.72960073 0.27021597 312.64159689 0.28062697 316.55375671 0.29873657 C321.57213539 0.32145477 326.59021325 0.3219611 331.60862923 0.31521893 C335.46559836 0.31188071 339.32249871 0.31850573 343.1794548 0.32834816 C345.03025325 0.33220064 346.88105934 0.33334818 348.73186111 0.33176231 C351.31489456 0.33139218 353.89753937 0.34399624 356.48051453 0.36026001 C357.630746 0.35654388 357.630746 0.35654388 358.80421448 0.35275269 C362.56206848 0.39058722 364.24547441 0.49677949 367.4526825 2.63491821 C369.13676844 7.10140702 367.86964637 10.94211029 366.5151825 15.32241821 C366.28991882 16.06427368 366.06465515 16.80612915 365.83256531 17.57046509 C363.0904171 26.24483033 359.42474516 34.46239036 355.4526825 42.63491821 C355.09657898 43.36775024 354.74047546 44.10058228 354.37358093 44.85562134 C332.82813969 88.5670746 293.53451038 122.37915892 247.75346375 138.74819946 C196.16660726 156.17106654 140.69715886 152.79998395 91.69584656 128.98428345 C82.40943344 124.292125 73.85485169 118.75068398 65.4526825 112.63491821 C64.85230164 112.20807739 64.25192078 111.78123657 63.63334656 111.34146118 C47.85306098 100.05016512 33.44491506 85.62546725 22.4526825 69.63491821 C21.72436218 68.58948853 20.99604187 67.54405884 20.24565125 66.46694946 C9.41722997 50.50640646 0.83098157 33.16862493 -4.5473175 14.63491821 C-4.78821106 13.84278931 -5.02910461 13.0506604 -5.27729797 12.23452759 C-5.48886536 11.45400024 -5.70043274 10.6734729 -5.91841125 9.86929321 C-6.11233459 9.17545532 -6.30625793 8.48161743 -6.50605774 7.76675415 C-6.59948368 2.93956289 -4.62978102 0.82866343 0 0 Z " fill="#000000" transform="translate(1251.5473175048828,370.3650817871094)"/>
<path d="M0 0 C0.86062042 -0.00525696 1.72124084 -0.01051392 2.60794067 -0.01593018 C5.45178396 -0.02912975 8.29506706 -0.02039147 11.13891602 -0.01025391 C13.11662402 -0.01227484 15.09433129 -0.01518644 17.07203674 -0.01895142 C21.21720473 -0.02337487 25.36217877 -0.01694366 29.50732422 -0.00292969 C34.81818577 0.01415096 40.12859212 0.00432817 45.43943691 -0.01364708 C49.52382326 -0.02449384 53.60810192 -0.02103427 57.69249153 -0.0132637 C59.65049353 -0.01126359 61.60850534 -0.01371435 63.5664959 -0.02070236 C66.30501016 -0.02833019 69.04279033 -0.01669344 71.78125 0 C72.99318275 -0.00910904 72.99318275 -0.00910904 74.229599 -0.0184021 C78.8074521 0.03323614 81.89024235 0.42418392 85.45532227 3.38818359 C86.88519287 5.50775146 86.88519287 5.50775146 87.99731445 7.93408203 C88.61721252 9.26965149 88.61721252 9.26965149 89.24963379 10.63220215 C89.64751099 11.54167603 90.04538818 12.4511499 90.45532227 13.38818359 C91.00138123 14.63396179 91.00138123 14.63396179 91.55847168 15.90490723 C92.65893403 18.47803046 93.72561484 21.06288227 94.78344727 23.65380859 C95.17675232 24.60850037 95.57005737 25.56319214 95.97528076 26.54681396 C97.22215452 29.57583464 98.46381997 32.60695797 99.70532227 35.63818359 C100.92867137 38.61313513 102.15304105 41.58766504 103.37756348 44.56213379 C104.18840866 46.5364821 104.99644423 48.51198669 105.80163574 50.48864746 C107.85429289 55.52506183 109.94337153 60.54034621 112.10571289 65.53076172 C112.52898865 66.52251404 112.9522644 67.51426636 113.3883667 68.53607178 C114.1917785 70.41613536 115.00798225 72.29080368 115.83917236 74.15875244 C117.98626897 79.22791464 119.2600756 82.90978625 117.45532227 88.38818359 C113.74755405 91.29658871 109.19765446 90.52790865 104.74633789 90.34545898 C102.92526496 90.28946756 101.10417863 90.23391037 99.28308105 90.1787262 C98.3188472 90.14615786 97.35461334 90.11358952 96.36116028 90.08003426 C91.23728401 89.91913199 86.1119743 89.8316585 80.98657227 89.73388672 C74.47126802 89.60809116 67.95955986 89.46007802 61.44750977 89.21557617 C56.17769699 89.01966506 50.91192765 88.90870645 45.63883972 88.85314751 C43.63837839 88.81692982 41.63821123 88.75037587 39.6398468 88.65190315 C28.91111807 87.87838877 28.91111807 87.87838877 19.44427299 92.05480766 C15.80022213 96.11534499 13.07873904 100.61465409 10.52738762 105.41822052 C9.18326679 107.88809644 7.5934376 110.11420891 5.89672852 112.35302734 C5.4159082 113.01753906 4.93508789 113.68205078 4.43969727 114.36669922 C3.97047852 115.01316406 3.50125977 115.65962891 3.01782227 116.32568359 C1.92534814 117.83477921 0.83290103 119.34389437 -0.25952148 120.85302734 C-0.80205566 121.60181152 -1.34458984 122.3505957 -1.90356445 123.12207031 C-4.62115936 126.87463145 -7.33269712 130.63156404 -10.04467773 134.38818359 C-13.3033683 138.90210255 -16.56334433 143.41506025 -19.82983398 147.92333984 C-20.92230092 149.43244066 -22.01474895 150.94155516 -23.10717773 152.45068359 C-23.63802979 153.18270996 -24.16888184 153.91473633 -24.71582031 154.66894531 C-27.50125803 158.52008989 -30.25206522 162.39136034 -32.95874023 166.29833984 C-33.50844482 167.08909912 -34.05814941 167.8798584 -34.62451172 168.69458008 C-35.67677364 170.21217028 -36.72339884 171.73368821 -37.76367188 173.25952148 C-38.97466404 175.00437621 -40.25331652 176.70194333 -41.54467773 178.38818359 C-42.20467773 178.38818359 -42.86467773 178.38818359 -43.54467773 178.38818359 C-50.34297522 162.19577567 -56.95643647 145.95207481 -63.22412109 129.54663086 C-65.51225834 123.56846248 -67.83991984 117.61623016 -70.33374023 111.72021484 C-70.76146729 110.70628662 -71.18919434 109.6923584 -71.62988281 108.64770508 C-72.42277947 106.78415345 -73.2265728 104.92518363 -74.04345703 103.07202148 C-76.52558013 97.23739052 -76.52558013 97.23739052 -76.60327148 93.78271484 C-74.96609153 90.07942587 -72.68533211 86.95507761 -70.29467773 83.70068359 C-69.49211548 82.58681274 -69.49211548 82.58681274 -68.67333984 81.45043945 C-67.54090911 79.88077424 -66.4046707 78.31384995 -65.26489258 76.74951172 C-63.60666066 74.47326716 -61.95863174 72.19004298 -60.31420898 69.90380859 C-56.52076776 64.63337249 -52.70981084 59.3756818 -48.89916992 54.11767578 C-43.07003709 46.07187925 -37.2623918 38.01365392 -31.54467773 29.88818359 C-30.06764323 27.79352044 -28.58976028 25.69946153 -27.11108398 23.60595703 C-26.01389116 22.05251258 -24.9176139 20.49842124 -23.82202148 18.94384766 C-22.06941271 16.46226918 -20.30806994 13.98710743 -18.54467773 11.51318359 C-18.00456055 10.74554688 -17.46444336 9.97791016 -16.90795898 9.18701172 C-16.39620117 8.47222656 -15.88444336 7.75744141 -15.35717773 7.02099609 C-14.6862207 6.07571045 -14.6862207 6.07571045 -14.00170898 5.11132812 C-9.87361567 0.22927675 -6.18793046 -0.04639303 0 0 Z " fill="#000000" transform="translate(2045.544677734375,158.61181640625)"/>
<path d="M0 0 C0.33 0 0.66 0 1 0 C1.22276611 1.06355713 1.44553223 2.12711426 1.67504883 3.22290039 C3.18203888 9.22366397 5.73322675 14.7761905 8.19921875 20.43359375 C8.98406131 22.25526343 9.76890277 24.07693359 10.55368519 25.89862919 C11.65034047 28.43999598 12.75261643 30.9789092 13.85479736 33.5178833 C16.29017577 39.13212402 18.71182271 44.75232032 21.13671875 50.37109375 C21.91026199 52.16043839 21.91026199 52.16043839 22.69943237 53.9859314 C25.86180084 61.31359144 28.97154458 68.65898572 31.96232605 76.05845642 C33.19657424 79.10490304 34.4713751 82.08857148 36 85 C6.75 125.5 6.75 125.5 5.12475586 127.75024414 C4.04211746 129.2493445 2.9595978 130.74853062 1.87719727 132.24780273 C-0.84079823 136.01228168 -3.56088068 139.77521904 -6.28515625 143.53515625 C-7.37762319 145.04425706 -8.47007121 146.55337157 -9.5625 148.0625 C-10.09335205 148.79452637 -10.6242041 149.52655273 -11.17114258 150.28076172 C-13.9565803 154.1319063 -16.70738748 158.00317675 -19.4140625 161.91015625 C-19.96376709 162.70091553 -20.51347168 163.4916748 -21.07983398 164.30639648 C-22.13209591 165.82398669 -23.17872111 167.34550461 -24.21899414 168.87133789 C-25.4299863 170.61619262 -26.70863878 172.31375973 -28 174 C-28.66 174 -29.32 174 -30 174 C-36.79829749 157.80759208 -43.41175874 141.56389122 -49.67944336 125.15844727 C-51.9675806 119.18027888 -54.2952421 113.22804656 -56.7890625 107.33203125 C-57.21678955 106.31810303 -57.6445166 105.3041748 -58.08520508 104.25952148 C-58.87810174 102.39596986 -59.68189507 100.53700004 -60.4987793 98.68383789 C-62.98090239 92.84920692 -62.98090239 92.84920692 -63.05859375 89.39453125 C-61.4214138 85.69124227 -59.14065438 82.56689402 -56.75 79.3125 C-55.94743774 78.19862915 -55.94743774 78.19862915 -55.12866211 77.06225586 C-53.99623138 75.49259064 -52.85999296 73.92566635 -51.72021484 72.36132812 C-50.06198292 70.08508357 -48.41395401 67.80185939 -46.76953125 65.515625 C-42.97609003 60.24518889 -39.16513311 54.9874982 -35.35449219 49.72949219 C-29.5084881 41.66040871 -23.68014519 33.58058967 -17.9375 25.4375 C-17.4542627 24.75236328 -16.97102539 24.06722656 -16.47314453 23.36132812 C-13.8460791 19.63213827 -11.22849548 15.89649011 -8.6171875 12.15625 C-8.06426025 11.36677979 -7.51133301 10.57730957 -6.94165039 9.76391602 C-5.87289555 8.23774115 -4.80688013 6.70964347 -3.74389648 5.17944336 C-2.52096177 3.43514246 -1.26405469 1.71473633 0 0 Z " fill="#FED100" transform="translate(2032,163)"/>
<path d="M0 0 C0.99 0.33 1.98 0.66 3 1 C4.2932078 3.63011671 5.39446284 6.18835537 6.44921875 8.9140625 C6.77942017 9.73992355 7.10962158 10.56578461 7.4498291 11.41667175 C8.53968676 14.14868793 9.61385294 16.88657688 10.6875 19.625 C12.20451625 23.45594583 13.72752361 27.28450275 15.25 31.11328125 C15.63842575 32.09360825 16.0268515 33.07393524 16.42704773 34.08396912 C19.11857308 40.85656164 21.90495341 47.58357598 24.75 54.29296875 C25.50324576 56.08046753 26.25626133 57.86806332 27.0090332 59.65576172 C28.09097239 62.22440646 29.17788493 64.79022696 30.28256226 67.34918213 C31.30156894 69.71222725 32.29923025 72.0832732 33.29296875 74.45703125 C33.59932251 75.15104538 33.90567627 75.84505951 34.22131348 76.56010437 C35.47670751 79.60800599 36.12577377 81.48626325 35.33056641 84.734375 C34.09777523 86.833513 32.86078202 88.83256586 31.41796875 90.79296875 C30.64839844 91.84774414 30.64839844 91.84774414 29.86328125 92.92382812 C29.31027344 93.67083984 28.75726562 94.41785156 28.1875 95.1875 C27.00376568 96.80588677 25.82017591 98.42437929 24.63671875 100.04296875 C24.03134277 100.86716309 23.4259668 101.69135742 22.80224609 102.54052734 C20.01410497 106.34542219 17.2577876 110.17308077 14.5 114 C13.41683927 115.50012464 12.3335054 117.00012429 11.25 118.5 C10.71375 119.2425 10.1775 119.985 9.625 120.75 C8 123 6.375 125.25 4.75 127.5 C3.9453833 128.61411255 3.9453833 128.61411255 3.12451172 129.75073242 C2.04287732 131.24834254 0.96117177 132.74590126 -0.12060547 134.2434082 C-2.85552295 138.02955187 -5.58913719 141.81662455 -8.3203125 145.60546875 C-11.01565275 149.34388505 -13.71449789 153.07974029 -16.41699219 156.81298828 C-17.48608423 158.2899973 -18.55442524 159.76755018 -19.62207031 161.24560547 C-21.1612978 163.3745735 -22.70495846 165.50024909 -24.25 167.625 C-24.71615723 168.27106201 -25.18231445 168.91712402 -25.66259766 169.58276367 C-26.75029691 171.073566 -27.87149893 172.53984022 -29 174 C-29.33 174 -29.66 174 -30 174 C-30.23775146 172.75557129 -30.47550293 171.51114258 -30.72045898 170.22900391 C-32.03238754 164.35035508 -34.21946957 158.90852139 -36.47265625 153.3359375 C-36.91459824 152.22683014 -37.35654022 151.11772278 -37.81187439 149.9750061 C-39.22235784 146.43907658 -40.64212024 142.90696424 -42.0625 139.375 C-42.98957741 137.05754964 -43.91601501 134.73984322 -44.84179688 132.421875 C-45.52573013 130.71031219 -45.52573013 130.71031219 -46.22348022 128.96417236 C-47.13684008 126.67725349 -48.0496244 124.39010468 -48.96182251 122.10272217 C-51.19896154 116.49503692 -53.44862222 110.89320301 -55.72607422 105.30175781 C-56.56638273 103.21431426 -57.40640309 101.12675467 -58.24609375 99.0390625 C-58.64151871 98.08123871 -59.03694366 97.12341492 -59.4443512 96.13656616 C-59.79714645 95.25312531 -60.14994171 94.36968445 -60.51342773 93.45947266 C-60.82610092 92.69108063 -61.13877411 91.9226886 -61.46092224 91.13101196 C-62.0838195 88.66865566 -61.85383668 87.36794221 -61 85 C-59.89941406 83.17919922 -59.89941406 83.17919922 -58.515625 81.3046875 C-57.99935547 80.59828125 -57.48308594 79.891875 -56.95117188 79.1640625 C-56.38978516 78.40867187 -55.82839844 77.65328125 -55.25 76.875 C-54.05712803 75.24751576 -52.86442431 73.61990819 -51.671875 71.9921875 C-51.06021484 71.16170898 -50.44855469 70.33123047 -49.81835938 69.47558594 C-47.02144589 65.66775797 -44.26150036 61.8335428 -41.5 58 C-40.41686905 56.49985385 -39.33353504 54.9998543 -38.25 53.5 C-37.71375 52.7575 -37.1775 52.015 -36.625 51.25 C-31.75 44.5 -31.75 44.5 -30.12402344 42.2487793 C-29.04377882 40.75296853 -27.96369993 39.25703807 -26.88378906 37.76098633 C-24.12956456 33.94587842 -21.37224197 30.13307354 -18.609375 26.32421875 C-12.30017657 17.61980261 -6.06802648 8.87468472 0 0 Z " fill="#FED100" transform="translate(1904,341)"/>
<path d="M0 0 C1.10270737 -0.00503792 1.10270737 -0.00503792 2.22769165 -0.01017761 C4.66499508 -0.01969907 7.10222989 -0.02163139 9.53955078 -0.02270508 C11.23104888 -0.02591709 12.92254669 -0.02928111 14.61404419 -0.03279114 C18.16327559 -0.03878558 21.71248264 -0.04063074 25.26171875 -0.04003906 C29.81036143 -0.03993748 34.35884788 -0.05358417 38.90745354 -0.07081127 C42.4024426 -0.08192909 45.89739389 -0.08395833 49.39239883 -0.08342934 C51.06933251 -0.08461 52.74626714 -0.08903658 54.42318344 -0.0967617 C56.76921272 -0.10655619 59.11490279 -0.10368567 61.4609375 -0.09765625 C62.5006369 -0.10608551 62.5006369 -0.10608551 63.56134033 -0.11468506 C67.1476778 -0.09125689 69.88362804 0.04664607 72.85986328 2.14526367 C75.30801854 5.81749655 75.12382631 7.63472163 75.15039062 12.01586914 C75.15710785 12.71053284 75.16382507 13.40519653 75.17074585 14.12091064 C75.18974895 16.41816352 75.19365124 18.71512458 75.19580078 21.01245117 C75.20222744 22.61044434 75.2089557 24.20843632 75.2159729 25.806427 C75.22795166 29.15719327 75.23165315 32.5078564 75.23046875 35.85864258 C75.2302656 40.14841513 75.25756062 44.43752491 75.29201317 48.72714043 C75.31427251 52.02832057 75.31830659 55.32934102 75.3172493 58.63058853 C75.31960699 60.21181649 75.32844009 61.79304873 75.34391403 63.37420273 C75.36355438 65.58856067 75.3577451 67.80148718 75.34570312 70.01586914 C75.34855316 71.27478973 75.3514032 72.53371033 75.3543396 73.83078003 C74.76973945 77.74936531 73.66443951 79.39298187 70.85986328 82.14526367 C67.36483875 83.31027185 64.6022337 83.28659594 60.91333008 83.30639648 C59.85911362 83.31384384 59.85911362 83.31384384 58.78359985 83.32144165 C56.4587506 83.33604492 54.13396961 83.34286254 51.80908203 83.34838867 C50.19106546 83.35414208 48.57304889 83.35989979 46.95503235 83.36566162 C43.56140831 83.37616669 40.16780793 83.38201244 36.77416992 83.38549805 C32.43306548 83.39097873 28.09227532 83.41499955 23.75126934 83.44347 C20.40803627 83.46212715 17.0648784 83.46730364 13.72159767 83.46883392 C12.12166439 83.47185454 10.52173225 83.47986312 8.9218502 83.4930191 C6.67918626 83.51014284 4.43728352 83.50818424 2.19458008 83.50170898 C0.28288277 83.50717743 0.28288277 83.50717743 -1.66743469 83.51275635 C-5.52124757 83.10493328 -7.89467332 82.248054 -11.14013672 80.14526367 C-13.67981089 76.84636053 -13.40532646 73.39809003 -13.43066406 69.34472656 C-13.43738129 68.66942398 -13.44409851 67.9941214 -13.45101929 67.2983551 C-13.46997905 65.07146804 -13.47392221 62.84488261 -13.47607422 60.61791992 C-13.48250292 59.06619646 -13.48923133 57.51447422 -13.49624634 55.9627533 C-13.50821355 52.71211944 -13.51192768 49.46159183 -13.51074219 46.2109375 C-13.51053888 42.05010103 -13.53785519 37.88994666 -13.57228661 33.72927189 C-13.5945461 30.52502831 -13.59858005 27.32094925 -13.59752274 24.11663628 C-13.59987959 22.58285608 -13.60870796 21.0490714 -13.62418747 19.51536751 C-13.64383227 17.36815987 -13.63801751 15.2224278 -13.62597656 13.07519531 C-13.6288266 11.85482071 -13.63167664 10.63444611 -13.63461304 9.37709045 C-13.04648462 5.53316693 -11.83996727 3.88987702 -9.14013672 1.14526367 C-6.19812421 -0.32574258 -3.2251692 -0.00209644 0 0 Z " fill="#FFD100" transform="translate(1401.14013671875,290.854736328125)"/>
</svg>
